<?xml version="1.0" encoding="utf-8"?>
<!DOCTYPE svg PUBLIC "-//W3C//DTD SVG 20010904//EN" "http://www.w3.org/TR/2001/REC-SVG-20010904/DTD/svg10.dtd">
<svg version="1.0" xmlns="http://www.w3.org/2000/svg" width="2536px" height="1525px" viewBox="0 0 2536 1525" preserveAspectRatio="xMidYMid meet">
 <g fill="#e6f5ff">
  <path d="M1400 910.4 c-10.3 -2.8 -20.4 -8.3 -27.8 -15.2 l-3.2 -3 -6.8 3.3 c-9.2 4.5 -22.1 8.4 -31.7 9.7 -4.4 0.5 -9.6 1.4 -11.6 2 -6 1.7 -28.9 -0.6 -42.7 -4.3 -11.1 -2.9 -23.1 -9 -29.7 -15 -16.5 -15.2 -25.5 -37.2 -25.5 -62.5 0 -5.7 -0.3 -10.4 -0.6 -10.4 -0.3 0 -3.1 0.7 -6.1 1.6 -8.7 2.5 -26 1.6 -33.5 -1.8 -13.2 -6.1 -19.9 -16.6 -20.6 -32.5 l-0.4 -9.3 -4.2 3.3 c-2.2 1.7 -4.2 3.5 -4.4 3.9 -0.2 0.5 -0.8 0.8 -1.2 0.8 -0.5 0 -3.3 1.4 -6.2 3.1 -13 7.7 -34.6 15.4 -50.5 18 -4 0.7 -7.3 1.5 -7.3 1.9 0 3 -76.2 2.5 -81.1 -0.6 -0.6 -0.4 -4.4 -1.3 -8.3 -2 -10.6 -2.1 -25 -6.3 -35.3 -10.4 -5.1 -2.1 -9.3 -3.6 -9.3 -3.4 0 0.2 4.4 3.2 9.8 6.8 12.2 8.1 23.5 13.4 38.8 18.1 14.3 4.4 17.3 5.8 22.4 10.7 3.9 3.7 6.1 8.9 5.9 13.8 -0.1 5.7 -11 11.1 -26.2 13 -17.8 2.2 -60.2 -0.3 -69.2 -4.1 -1.1 -0.4 -7.7 -2.2 -14.8 -3.8 -25 -6 -50.9 -15.9 -77.4 -29.6 -7.9 -4 -14.3 -7.1 -14.3 -6.9 0 0.7 15.9 10.8 20.8 13.3 5.2 2.7 7.9 6.8 8.8 13.7 0.6 5 0.4 5.5 -2.2 7.8 -5.3 4.7 -13.9 6.6 -29.6 6.6 -27.7 0 -39.8 -5.2 -66.8 -28.9 -6.4 -5.6 -12.4 -10.1 -13.5 -10.1 -1.1 0 -8.3 2 -16 4.4 -26.3 8.3 -28 8.5 -42.7 6 -22.8 -3.8 -48.2 -16 -61.1 -29.1 l-4.8 -4.9 -6.7 2.3 c-3.7 1.2 -7.7 2.3 -8.9 2.3 -1.2 0 -2.3 0.4 -2.5 1 -0.5 1.4 -19.4 2.3 -26.3 1.2 -18.2 -2.9 -31.3 -8.4 -40.4 -16.8 -8.7 -8 -9.4 -10.1 -8.9 -25.8 0.4 -10.9 0.9 -14.3 3.1 -20.4 3.7 -10.2 8.1 -17.5 14.6 -24.2 7.3 -7.4 11.4 -8.5 31.1 -8.5 16 0.1 25.5 1.7 40 6.7 10.9 3.8 28.8 12.7 36.5 18.1 5.4 3.9 6 4.6 6.3 8.3 0.3 3.6 0 4.1 -3 5.6 -3.1 1.5 -2.2 1.6 16.8 1.1 22.8 -0.7 39.4 0.6 58.1 4.3 10.5 2.1 17.1 3.8 39.8 10.5 l3 0.9 -3 -2.4 c-1.6 -1.4 -6.6 -4.6 -11 -7.2 -4.4 -2.6 -9 -5.4 -10.2 -6.1 -2.1 -1.2 -2.3 -2.1 -2.3 -8.6 0 -14.3 4.4 -24.7 15 -36 9.6 -10.3 20.9 -17.4 35.2 -22.3 10.3 -3.5 20.2 -4.7 34.5 -4.2 10.6 0.4 14.1 0.9 20.5 3.2 l7.7 2.7 5.9 -5.9 c15.2 -15.2 38.3 -26.7 63.7 -31.8 13.5 -2.7 37.7 -2.5 51.2 0.4 19.4 4.2 32.4 10.2 43.6 20.2 4.8 4.4 5.7 5.7 5.7 8.5 0 4.2 -1 4.8 -11 6.5 -12.5 2.1 -29.8 7.8 -42.5 14 -6.6 3.2 -12.9 6.6 -14 7.5 l-2 1.6 2 -0.9 c4.5 -2.2 24.6 -7.3 35.4 -9.2 38.3 -6.4 80.5 -5.1 114 3.6 23.9 6.2 41.9 14.9 59.3 28.6 l8.8 6.8 11.3 0 c12.9 0 19.8 1.5 30.5 6.5 13 6.1 22.8 18 25.3 30.8 l1.1 5.5 7.7 -5.5 c17 -12.3 38 -20.1 63.9 -23.9 13.4 -2 44.3 -2.3 57.2 -0.5 34 4.6 60.5 15.3 80.3 32.4 l5.8 5 4.7 -2.6 c13.7 -7.4 29.6 -10.7 52.1 -10.7 21 0 37.3 2.8 54.3 9.5 1.5 0.6 1.5 0.3 0.3 -3.2 -0.8 -2.1 -1.4 -6.1 -1.5 -8.9 0 -6.3 2.2 -9.4 8.2 -11.9 5.6 -2.2 22.5 -3.2 29.8 -1.6 11.7 2.5 24.2 10.9 31 20.9 l3.4 4.9 4.8 -6.8 c6.1 -8.7 14.7 -15.8 25.1 -20.8 13 -6.3 19 -7.5 35.7 -7.6 17.2 0 25 1.8 39.4 9.3 15.2 7.8 30.6 24.9 30.6 34 l0 2.8 6.8 -3.3 c9.2 -4.5 16.1 -5.6 32.7 -5 11.5 0.3 15.4 0.9 22.1 3.1 9.4 3 18.7 8.7 23.4 14.3 l3.3 3.9 5.3 -5.3 c16.3 -15.8 36.8 -24.1 61.9 -25 26.9 -1 48.3 5.5 64.8 19.9 4 3.5 5.8 5.9 7 9.5 4.6 14.1 4.7 30.9 0.2 45 -3 9.6 -6.5 13.2 -17.6 18.3 -7 3.2 -8.1 3.4 -20.5 3.8 -11.9 0.4 -13.7 0.2 -20.1 -2.1 -8.1 -2.8 -16.7 -8.2 -21.5 -13.5 -3.2 -3.5 -3.5 -3.6 -5.1 -2.1 -0.9 0.8 -1.7 2.3 -1.7 3.2 0 0.9 -0.9 2.1 -2 2.7 -1.1 0.6 -2 1.6 -2 2.3 0 1.2 -1.8 3 -5.2 5.2 -0.8 0.6 -3.9 2.7 -6.9 4.7 -7.5 5.2 -15.6 7.7 -27.9 8.8 -10.8 1 -16.5 0.3 -29.3 -3.7 -10.6 -3.3 -20.7 -13.1 -20.7 -20.2 0 -3.8 1.4 -6.1 3.7 -6.1 1.9 0 14.3 -5.3 14.3 -6.1 0 -1 -8.4 1.3 -9.2 2.5 -0.4 0.6 -5.5 1 -13 1 -15.5 0 -27.2 -2.5 -37.1 -8 -1.6 -0.9 -3 -1.4 -3.1 -1.2 -0.2 0.1 -0.7 5.7 -1.3 12.2 -0.6 7.5 -1.4 12.1 -2.1 12.4 -0.7 0.2 -1.2 1.2 -1.2 2.2 0 2.4 -2.1 7 -3.2 7 -0.4 0 -0.8 0.7 -0.8 1.5 0 0.8 -0.4 1.5 -1 1.5 -0.5 0 -1 0.4 -1 1 0 0.7 -11.9 13 -12.6 13 -0.1 0 -2.7 1.6 -5.9 3.5 -3.1 1.9 -8.2 4 -11.1 4.6 -3 0.7 -5.4 1.5 -5.4 1.9 0 0.3 -5.7 0.6 -12.7 0.5 -17.8 -0.3 -30.4 -4.1 -42.8 -13 -6.2 -4.4 -16.5 -14.8 -16.5 -16.6 0 -0.6 -1.5 0.1 -3.2 1.4 -5 3.7 -8.7 5.3 -15.3 6.7 -3.3 0.7 -7 1.7 -8.2 2.3 -1.6 0.7 -4.8 0.7 -10.5 0 -18 -2.2 -30.5 -7.8 -41 -18.5 -6.1 -6.1 -6.8 -7.2 -6.8 -10.7 l0 -3.9 -9.5 4.9 c-5.2 2.8 -13 6.3 -17.3 7.9 -9.1 3.3 -26.6 8 -29.8 8 -1.2 0 -2.4 0.5 -2.6 1.1 -0.2 0.7 -4.2 1.3 -10.3 1.5 -5.5 0.2 -13.9 0.9 -18.7 1.5 -5.2 0.7 -12.4 0.9 -17.5 0.5 -4.9 -0.4 -14.7 -1.1 -21.8 -1.5 -7.2 -0.4 -14.6 -1.3 -16.5 -1.9 -1.9 -0.6 -8 -2.1 -13.5 -3.3 -10.2 -2.2 -28.7 -8 -33.8 -10.6 -6 -3 -3.5 -0.3 4.6 5.1 9.6 6.4 23.5 13.1 35.2 17 9 3 30.5 7.6 35.6 7.6 1.9 0 5.1 0.3 7.2 0.6 3.6 0.6 3.7 0.8 3.7 5 0 2.4 -0.6 4.9 -1.5 5.8 -0.8 0.8 -1.5 1.9 -1.5 2.5 0 0.6 -0.4 1.1 -0.9 1.1 -0.5 0 -1.1 0.6 -1.3 1.3 -0.4 1.8 -12.8 13.1 -17.9 16.3 -2.4 1.5 -4.6 3 -4.9 3.4 -0.3 0.4 -1.6 0.9 -3 1.2 -1.4 0.3 -5.2 1.3 -8.5 2.2 -7.6 2.1 -27.8 2.1 -35.5 0z"/>
  <path d="M1979 757 c0 -3.2 0.8 -3.2 5.3 0.3 2.5 2.1 2.1 2.7 -1.8 2.7 -3.2 0 -3.5 -0.2 -3.5 -3z"/>
 </g>
 <g fill="#b5d7ff">
  <path d="M1353.6 964.8 c-29.5 -2.7 -59.7 -17.5 -81 -39.8 l-5.9 -6.1 -5.1 0.8 c-2.8 0.4 -10.3 0.8 -16.6 0.7 -16.9 -0.2 -30 -4.4 -44.6 -14.5 -15.1 -10.5 -27.2 -26.5 -32 -42.4 -1 -3.3 -1.9 -6.2 -2.1 -6.4 -0.1 -0.2 -2.3 1.7 -4.8 4.3 -9.1 9.1 -23.4 13.8 -41.7 13.8 -11.3 0 -11.6 0 -9.7 1.9 6 6 8.4 18.3 5.4 28.5 -5.7 19.8 -24.8 30.4 -54.7 30.4 -23.5 0 -46.9 -6.1 -61 -15.8 -6.2 -4.3 -13.5 -12 -16.6 -17.5 -1.9 -3.3 -3.1 -4.5 -4.2 -4.1 -9.1 3.9 -23.1 5.4 -39.8 4.3 -17 -1.2 -40.6 -10.4 -59.6 -23.3 l-9.8 -6.7 -4.2 2.5 c-11 6.4 -30 8 -45.1 3.7 -12.9 -3.7 -34.7 -15.7 -48 -26.5 l-3 -2.4 -7.1 6.7 c-16.3 15.5 -33.2 23.4 -56.5 26.2 -39.1 4.8 -78.4 -19.8 -94.1 -58.9 -1.6 -3.9 -3.4 -9.7 -4 -12.7 -0.6 -3 -1.4 -5.5 -1.8 -5.5 -0.4 0 -2.9 1 -5.5 2.1 -4.4 1.9 -6.1 2.1 -17.9 1.6 -20.8 -0.8 -33.5 -6.3 -43.2 -18.6 -7.5 -9.5 -13.4 -24.1 -13.4 -33.1 l0 -3.5 2.3 4.5 c3.4 6.8 14.1 17.1 21.7 20.8 6.2 3 19.1 6.9 25.5 7.7 1.7 0.2 5.4 0.7 8.3 1.1 3.6 0.4 6.1 0.3 7.7 -0.6 1.3 -0.7 3.5 -1 4.9 -0.8 1.4 0.3 2.6 0.2 2.6 -0.1 0 -0.4 2.6 -1.2 5.8 -1.9 3.2 -0.7 8.1 -2.4 11 -3.8 l5.2 -2.6 5.6 6.1 c13 14.1 38.3 26.5 62.3 30.6 11 1.8 12.1 1.6 36.6 -6.1 7.7 -2.4 15.8 -4.6 18.1 -5 4.5 -0.7 4.5 -0.7 18.4 11.7 23.9 21.2 39.1 27.9 62.9 27.9 12.2 0 21 -2.1 25.9 -6.1 2.3 -2.1 2.7 -2.9 2.1 -5.6 -1 -4.9 -3.5 -8 -8.2 -10.4 -6.7 -3.4 -19.8 -12.2 -25 -16.9 -5.7 -5.1 -15.3 -17.3 -13.9 -17.8 0.5 -0.1 6.3 3.2 12.8 7.5 29.6 19.2 69.1 36.3 103.1 44.4 7.1 1.6 13.5 3.3 14.3 3.6 0.8 0.3 3 0.7 4.7 1 1.8 0.2 5.4 0.8 8 1.3 7.4 1.6 9.7 1.8 25.8 2.6 23.4 1 39.8 -1.7 47.3 -7.9 3.5 -3 3.7 -3.5 3 -6.4 -1 -3.7 -7 -9.9 -12 -12.5 -1.8 -0.9 -8.7 -3.3 -15.2 -5.3 -20.2 -6.2 -36.7 -15 -51.2 -27.4 -6.3 -5.3 -13 -12.9 -12.1 -13.7 0.2 -0.2 5.2 2 11 5 17.2 8.8 33.6 14.6 52.7 18.7 12.3 2.6 14.2 2.9 16 3 0.8 0.1 5.6 0.5 10.5 1.1 11.8 1.2 34.5 1.2 46.8 -0.2 5.4 -0.6 10.2 -0.8 10.7 -0.5 0.6 0.3 1 0.2 1 -0.3 0 -0.5 3.3 -1.4 7.3 -2.1 15.9 -2.6 37.5 -10.3 50.5 -18 2.9 -1.7 5.7 -3.1 6.2 -3.1 0.4 0 1 -0.3 1.2 -0.7 0.4 -1.1 9.5 -8.3 10.4 -8.3 0.4 0 2 -1.4 3.6 -3.2 l2.8 -3.2 -0.1 4.5 c-0.1 2.4 -0.4 4.8 -0.7 5.3 -0.7 1.3 -0.5 13.3 0.3 17 1.9 9.1 9.6 17.9 19.4 22.4 10.6 4.8 27.2 3.9 36.7 -1.9 4.6 -2.8 5.8 -2.5 4.9 1.4 -1 4 -1.1 23.2 -0.2 27.2 0.3 1.7 0.9 4.4 1.2 6 3 14.6 11.8 30.1 23 40.4 10 9.1 26.8 15.7 46.1 18.2 4.9 0.6 10.6 1.4 12.8 1.6 2.1 0.3 5.5 0.1 7.5 -0.5 2 -0.6 7.2 -1.5 11.6 -2 10.4 -1.4 22.9 -5.3 33.7 -10.7 l8.7 -4.4 5 4.7 c6.3 5.9 14.2 10.7 22.9 14 9.2 3.4 24.9 4.2 34.2 1.7 3.6 -1 7.6 -2 9 -2.3 1.4 -0.3 2.7 -0.8 3 -1.2 0.3 -0.4 2.5 -1.9 4.9 -3.4 5.1 -3.3 17.7 -14.8 17.3 -15.9 -0.1 -0.4 0.5 -1 1.3 -1.3 0.8 -0.3 1.2 -1 0.9 -1.5 -0.3 -0.5 0.2 -1.2 1 -1.5 0.9 -0.3 1.3 -1 1 -1.5 -0.3 -0.5 -0.1 -0.9 0.4 -0.9 0.5 0 0.9 -0.7 0.9 -1.5 0 -0.8 -0.1 -1.5 -0.3 -1.5 -1.3 0 -20.6 -2.1 -22.4 -2.5 -30.2 -5.8 -56.6 -18.5 -75.1 -36.3 -11.9 -11.2 -11 -12.1 4.5 -4.3 24.1 12.3 50.1 19.8 74.6 21.6 4.1 0.3 11.9 1 17.2 1.7 7.5 0.8 11.8 0.8 18 -0.1 4.6 -0.6 12 -1.2 16.5 -1.4 4.6 -0.1 8.3 -0.6 8.3 -1.1 0 -0.4 1.1 -0.6 2.5 -0.4 1.4 0.3 2.5 0.1 2.5 -0.3 0 -0.5 1 -0.9 2.3 -0.9 3.1 0 20.1 -4.5 29 -7.6 7.4 -2.7 28.9 -13.3 29.5 -14.6 0.2 -0.5 0.8 -0.8 1.2 -0.8 0.5 0 2.8 -1.8 5.2 -4 2.4 -2.2 4.7 -4 5.1 -4 0.5 0 1.7 -1 2.6 -2.2 2.7 -3.2 4.6 -1.4 2.4 2.3 -1 1.6 -2.1 2.9 -2.6 2.9 -0.4 0 -0.5 0.5 -0.2 1 0.3 0.6 -0.1 1.3 -0.9 1.6 -0.9 0.3 -1.4 1 -1.1 1.4 0.3 0.5 -0.5 1.6 -1.7 2.4 -1.2 0.9 -1.8 1.6 -1.3 1.6 0.6 0.1 -0.1 1 -1.5 2.1 -1.3 1.1 -2.5 2.7 -2.6 3.6 -0.4 2.7 12.6 14.6 20.2 18.6 7.1 3.7 17.2 7 20.9 6.8 1.1 0 3.5 0.4 5.4 1 2.2 0.8 4 0.8 5.5 0.1 1.1 -0.5 4.8 -1.5 8.1 -2.2 7 -1.4 12.1 -3.9 16.9 -8 1.8 -1.7 3.8 -3 4.4 -3 0.6 0 2.4 1.9 4 4.3 11.5 16.6 33.2 27.6 55.4 28 5.4 0.1 9.8 -0.1 9.8 -0.4 0 -0.3 2.4 -1.1 5.4 -1.8 2.9 -0.6 8 -2.7 11.1 -4.6 3.2 -1.9 5.8 -3.5 6 -3.5 0.7 0 11.9 -11.6 11.7 -12.3 -0.1 -0.4 0.5 -1 1.3 -1.3 0.8 -0.3 1.2 -1 0.9 -1.5 -0.3 -0.5 0.2 -1.2 1 -1.5 0.9 -0.3 1.3 -1 1 -1.5 -0.3 -0.5 0 -0.9 0.6 -0.9 0.6 0 0.8 -0.4 0.5 -1 -0.3 -0.5 -0.2 -1 0.2 -1 0.5 0 1 -1 1 -2.2 0.1 -1.3 0.7 -2.4 1.2 -2.6 0.5 -0.2 0.7 -1 0.4 -1.8 -0.3 -0.8 -0.1 -1.4 0.5 -1.4 0.5 0 0.9 -0.6 0.9 -1.2 -0.1 -0.7 0.2 -4.2 0.6 -7.8 0.4 -3.6 0.3 -9.1 -0.3 -12.4 -0.5 -3.3 -0.9 -6.1 -0.7 -6.2 0.1 -0.1 3.1 1.7 6.7 4 3.6 2.4 9.2 5.2 12.5 6.4 12 4.2 27.1 6.3 31.1 4.2 1.2 -0.7 3 -1 3.8 -0.7 0.9 0.4 1.6 0.3 1.6 -0.2 0 -0.5 1.7 -1.2 3.8 -1.6 4.8 -0.9 17.2 -7.3 19.4 -10.1 2 -2.4 5.5 -3.7 6.4 -2.3 0.3 0.5 0 0.9 -0.6 0.9 -0.6 0 -0.8 0.5 -0.5 1 0.3 0.6 0.1 1 -0.5 1 -0.6 0 -0.8 0.5 -0.5 1 0.3 0.6 0.1 1 -0.5 1 -0.6 0 -0.9 0.4 -0.5 0.9 0.3 0.6 -0.3 1.4 -1.2 2 -1 0.6 -1.4 1.1 -0.9 1.1 1.4 0 -6.7 8 -8.1 8 -0.6 0 -1.3 0.4 -1.5 0.8 -0.4 1 -12.1 6.2 -14.1 6.2 -0.8 0 -2 0.7 -2.7 1.5 -2.6 3.1 6.2 12.9 15.5 17.1 19 8.7 42.6 6.7 57.8 -4.9 2.6 -2.1 4.9 -3.7 5.2 -3.7 1.1 0 4.4 -3.4 3.9 -4.1 -0.2 -0.5 0.7 -1.6 2.1 -2.5 1.3 -0.9 2.2 -2 2 -2.5 -0.3 -0.4 0.3 -1.7 1.4 -2.8 1.1 -1.1 1.7 -2.2 1.4 -2.5 -0.4 -0.3 -0.1 -0.6 0.6 -0.6 0.7 0 0.9 -0.4 0.6 -1 -0.3 -0.5 -0.1 -1 0.5 -1 0.6 0 0.8 -0.4 0.5 -1 -0.3 -0.5 0 -1 0.9 -1 0.8 0 2.4 1.6 3.6 3.5 4.5 7.3 15 14.8 26 18.5 5.5 1.8 8.1 2.1 16.5 1.8 8.7 -0.4 10.9 -0.9 17.4 -3.8 4.1 -1.9 9.4 -5.2 11.9 -7.5 2.4 -2.2 5.2 -4.3 6.3 -4.7 1.6 -0.6 1.7 -0.4 0.8 2 -0.6 1.4 -2.6 5.6 -4.5 9.2 -11.9 22.7 -33 30.9 -58 22.5 -8.4 -2.8 -19.9 -8.4 -26 -12.6 l-4.1 -2.8 -2.9 6.2 c-4.3 9.1 -14.8 19.4 -24.5 24.1 -9.4 4.5 -17.2 6 -26.6 5.2 -17.8 -1.4 -34.3 -12.5 -42.8 -28.7 -3.3 -6.4 -3.8 -6.9 -5.3 -5.6 -6.6 5.8 -26.4 21 -34.7 26.6 -34.1 23.3 -65.5 30 -95.3 20.6 -13.8 -4.4 -27.2 -14.1 -33.9 -24.7 l-2.9 -4.5 -7 4.1 c-7.4 4.4 -19.7 8.7 -30.1 10.7 -10.2 1.9 -32.1 0.7 -42.1 -2.3 l-8.4 -2.6 -4.3 2.5 c-8.4 4.7 -17 6.6 -30 6.6 -13.4 0.1 -19.7 -1.3 -29.9 -6.6 -3.4 -1.7 -6.4 -3.2 -6.7 -3.2 -0.4 0 -3 4.5 -5.8 10 -15.3 30.1 -43.9 54.6 -75.6 64.9 -15.9 5.2 -33.1 7 -50.9 5.4z"/>
 </g>
 <g fill="#ffffff">
  <path d="M1865.1 793.8 c-4.8 -7.8 -14.6 -14.6 -26.6 -18.4 -9.5 -3.1 -26.6 -4.3 -36 -2.5 -8.3 1.6 -17.6 6.2 -23.5 11.7 -5.4 5.1 -5.7 4.8 -3.6 -4.1 1.4 -5.7 1.4 -6.1 -1.1 -11 -1.4 -2.8 -6.1 -8.5 -10.7 -13 -9.3 -9.2 -20.8 -15.9 -34.2 -19.7 -10.2 -2.9 -27.6 -3.1 -37.4 -0.4 -9.5 2.6 -22.1 8.9 -29 14.6 -6.1 5.1 -15.6 17.5 -16.6 21.7 -0.9 3.5 -1.9 2.8 -5.4 -3.4 -6.8 -12.1 -20.9 -22.6 -34 -25.4 -6.9 -1.5 -18.8 -0.5 -24.5 2 -8.8 3.9 -9.3 8.6 -2.4 22.3 2.1 4.2 3.9 8.2 3.9 8.8 0 0.6 -2 -0.3 -4.5 -2 -27.4 -18.9 -86.4 -20.1 -112.7 -2.4 l-5 3.4 -6.1 -5.6 c-25.2 -23.1 -64.1 -35.9 -107.7 -35.7 -35.4 0.2 -65.5 8.5 -88.6 24.4 -3.8 2.7 -8.3 6.2 -9.9 7.9 -1.6 1.6 -3.4 3 -4 3 -0.7 0 -1.5 -2.5 -1.9 -6.2 -1.4 -14.1 -11.6 -27.6 -25.8 -34.3 -11.3 -5.3 -18.6 -6.8 -30.7 -6.3 l-10.4 0.5 -8.5 -6.8 c-13 -10.5 -24.7 -17.1 -41.3 -23.2 -37 -13.8 -82.1 -17.2 -127.1 -9.6 -18 3 -41.7 10.3 -55.2 17.1 -3.2 1.6 -6.1 2.6 -6.5 2.3 -0.9 -1 8.1 -8.7 17.5 -15 15.8 -10.7 37.5 -19.3 58.8 -23.4 5.4 -1.1 10.3 -2.4 10.8 -2.9 1.3 -1.3 -9 -10.4 -17.2 -15.2 -19.9 -11.6 -51.8 -16.5 -76.5 -11.6 -26 5.2 -49 16.9 -64.6 32.8 -3.7 3.7 -7 6.8 -7.4 6.8 -0.5 0 -3.2 -1.1 -6.1 -2.5 -18.1 -8.6 -44.2 -7.1 -65.9 3.8 -19.6 9.8 -34.2 26.1 -37.5 42.2 -0.6 3 -1 7.1 -0.8 9.1 0.3 3.6 0.7 4 8.8 8.6 13.1 7.5 29.4 20.7 27.8 22.4 -0.4 0.3 -5.5 -1 -11.5 -2.9 -50.9 -16.5 -78.3 -20.1 -120.2 -16.1 -9 0.8 -16.6 1.3 -16.8 1 -0.6 -0.6 10.4 -7.8 14.6 -9.6 1.7 -0.7 3.1 -1.6 3.1 -2.1 0 -1.4 -8.7 -7.4 -18.5 -12.8 -31.2 -17.1 -64.5 -22.4 -85.7 -13.6 -3.5 1.4 -7 2.9 -7.8 3.2 -0.8 0.3 0.8 -1.5 3.5 -4.1 15.2 -14 37.5 -18.4 62.2 -12.3 15.7 3.9 38 14.5 58.1 27.5 l6.4 4.1 3 -5.9 c3.4 -6.9 8.7 -11.7 17.4 -15.7 4.9 -2.3 7.6 -2.8 16 -3.1 l10.1 -0.4 2.7 -5.6 c6.1 -12.3 20.5 -27.2 34.5 -35.6 21.7 -13 55 -22 87 -23.5 l14.4 -0.6 1.4 -5 c4.6 -16.4 11 -27.2 23.8 -40 11.2 -11.2 20 -16.8 34.3 -21.8 7.7 -2.7 10.3 -3.1 22.3 -3.5 11.5 -0.4 14.9 -0.1 22 1.7 10 2.5 22.9 8.5 31.3 14.5 11.7 8.4 23.6 22.6 28.7 34.2 l1.9 4.3 4.3 -1.5 c2.3 -0.8 9.2 -2.8 15.2 -4.4 34 -9.1 69.8 -9.8 94.5 -1.8 7.7 2.5 20.3 8.6 26.8 13 7.6 5.1 21.3 19.7 26 27.6 7.2 12.3 9.6 20.8 9.7 33.9 l0 11.3 4.3 0 c5.7 0 18.2 2.6 23.7 5 6.4 2.7 14.9 8.4 20.3 13.5 l4.7 4.3 6.4 -4.8 c31 -23.3 78 -30.5 123.4 -18.9 25.3 6.4 57.5 20.9 93 41.9 l8.1 4.8 5.8 -2.9 c19.9 -10 46.3 -6.7 63 8 l4.6 4.1 4.1 -7.4 c16.2 -29.5 46.2 -48.7 83.6 -53.7 17.8 -2.3 52.8 2.5 73.7 10.1 15.1 5.5 29.6 15.5 42.4 29.3 9.9 10.7 14.1 18.1 18 32.5 0.2 0.7 1.9 -0.3 4.5 -2.7 5.5 -5.4 12 -9.6 18.8 -12.2 6.9 -2.6 21.5 -3.6 29.1 -2 13.8 3 28.4 14.3 35 27.2 l3.3 6.5 7.1 -7.1 c12.3 -12.4 26.8 -20.7 43.3 -24.6 11.4 -2.7 28.1 -2.3 38.8 1.1 6.5 2 19.2 8.2 23.2 11.2 6.5 5 16.2 16.2 19.6 22.6 4.2 8 6.1 13.2 4.7 13.2 -0.5 0 -4 -3 -7.8 -6.7 -11.8 -11.6 -24.4 -17.5 -44.2 -20.8 -29.7 -5 -59.5 4.6 -80.1 25.7 -3.7 3.7 -6.9 6.8 -7.2 6.8 -0.3 0 -1.4 -1.5 -2.6 -3.2z"/>
 </g>
</svg>