<?xml version="1.0" encoding="utf-8"?>
<!DOCTYPE svg PUBLIC "-//W3C//DTD SVG 20010904//EN" "http://www.w3.org/TR/2001/REC-SVG-20010904/DTD/svg10.dtd">
<svg version="1.0" xmlns="http://www.w3.org/2000/svg" width="2129px" height="1304px" viewBox="0 0 2129 1304" preserveAspectRatio="xMidYMid meet">
 <g fill="#b5d7ff">
  <path d="M722.5 970.9 c-31.9 -3.9 -56.8 -12.6 -79.4 -27.6 -21.2 -14.1 -37 -37.6 -39.7 -59 l-0.6 -5.3 -5.2 0.7 c-8.4 1.3 -38.5 0.9 -44.6 -0.6 -23 -5.4 -41.8 -17.1 -52 -32.1 -13.2 -19.5 -21.9 -46.8 -19.1 -60 0.6 -2.8 1.1 -5.5 1.1 -5.9 0 -0.4 -5.7 -1.1 -12.7 -1.4 -16.4 -0.7 -23.4 -2.9 -35.8 -11.1 -8.1 -5.4 -11.7 -8.8 -18 -17.1 -15.2 -19.9 -23.5 -47.8 -23.5 -79.5 0 -14.4 1.2 -25 3.9 -35 2.9 -10.5 3.5 -12 4.7 -12 1 0 1.2 2.7 1 12.3 -0.2 8.2 0.3 15.7 1.5 22.7 2.6 15.2 3 17.3 3.8 19.5 3.9 9.7 5.1 13.2 5.1 14.3 0 0.6 0.5 1.2 1 1.2 0.6 0 1 0.7 1 1.5 0 2.1 5.5 11.1 11.3 18.4 14.4 18.1 35.5 28.5 60.7 29.8 16.6 0.9 34.5 -3.6 44.4 -11.2 2.2 -1.7 4.9 -3.4 5.9 -3.8 1.5 -0.6 4.3 -5.5 3.5 -6.2 -0.2 -0.1 -4.9 -2.6 -10.5 -5.4 -11 -5.7 -21.1 -12.6 -28.5 -19.9 -4.1 -3.9 -4.8 -5.2 -4.8 -8.4 0 -3.6 0.1 -3.8 3.4 -3.8 1.8 0 7.1 1.8 11.7 3.9 17.5 8.2 39.7 14.7 59.9 17.7 16 2.3 41 1.5 57.1 -1.9 16.5 -3.5 49.2 -15.3 53.5 -19.2 0.6 -0.6 3.1 -1.9 5.5 -3 2.4 -1.1 4.6 -2.2 4.9 -2.5 1.3 -1.4 18.1 -12 19 -12 0.5 0 1 -0.5 1 -1.1 0 -0.6 1.7 -0.9 4.3 -0.7 3.9 0.3 4.2 0.5 4.5 3.5 0.2 2.4 -0.6 4.5 -2.9 8 -3.9 5.6 -20.1 22.3 -21.7 22.3 -0.6 0 -1.6 0.9 -2.2 2 -0.6 1.1 -1.7 2 -2.4 2 -0.8 0 -1.6 0.7 -2 1.5 -0.3 0.8 -1.2 1.5 -2.1 1.5 -0.8 0 -1.5 0.5 -1.5 1 0 0.6 -0.7 1 -1.5 1 -0.8 0 -1.5 0.5 -1.5 1 0 0.6 -0.7 1 -1.5 1 -0.8 0 -1.5 0.4 -1.5 0.9 0 0.4 -2 1.6 -4.5 2.5 -2.5 1 -4.5 2.1 -4.5 2.6 0 0.4 -1.3 1 -2.9 1.3 -1.6 0.3 -3.5 1.3 -4.3 2.1 -0.8 0.8 -3.5 2 -5.9 2.7 -2.4 0.7 -4.6 1.6 -4.9 1.9 -0.3 0.4 -2.2 1 -4.4 1.3 -4.9 0.8 -14.8 5.4 -21.4 10.1 -2.8 2 -5.4 3.6 -5.7 3.6 -0.5 0 -9.5 9.1 -9.5 9.6 0 0.2 -1.6 2.5 -3.6 5.1 -6.5 8.5 -11.1 19.1 -13.5 31 -2.2 10.5 1.1 22.7 8.3 30.8 8 9.2 19.3 13.8 33.8 13.8 10.2 0.1 16.7 -1 30 -5 4.7 -1.5 10.8 -2.8 13.5 -3 5 -0.4 5 -0.3 9 4.6 14.7 18.3 37.6 27.8 59.4 24.5 14.6 -2.2 29.1 -8.1 41.9 -17 3.5 -2.4 6.5 -4.4 6.9 -4.4 0.3 0 1.4 -1.1 2.5 -2.5 1.1 -1.4 2.4 -2.5 3 -2.5 1.3 0 9.8 -8.5 9.8 -9.8 0 -0.6 1.1 -1.9 2.5 -3 1.4 -1.1 2.5 -2.2 2.5 -2.5 0 -0.2 2.1 -3.5 4.6 -7.3 9.4 -14.1 15.2 -28.9 17.5 -45.1 1 -7.4 1 -10.8 0 -17.5 -1.4 -9.6 -4.5 -20.7 -7.2 -26 -1.1 -2.1 -1.9 -5.8 -1.9 -8.3 0 -4.4 0.1 -4.5 3.1 -4.5 2.3 0 6.1 2.2 15.2 8.9 46.5 34.1 93.9 52.1 151.6 57.6 19.3 1.9 34.3 1.9 54.1 0.1 49.4 -4.6 93.3 -17 135.7 -38.5 15 -7.6 25.5 -13.3 26.3 -14.1 1.1 -1.2 23.1 -16 23.8 -16 0.4 0 1.3 -0.9 2 -2 0.7 -1.1 1.8 -2 2.6 -2 0.8 0 1.6 -0.7 2 -1.5 0.3 -0.8 1.2 -1.5 2 -1.5 0.7 0 2.1 -1.1 3 -2.5 0.9 -1.4 2.1 -2.5 2.7 -2.5 0.6 0 2.2 -1.3 3.6 -3 2.1 -2.6 3.2 -3 7.4 -3 4.8 0 4.9 0.1 4.9 3 0 1.7 -1.3 5.7 -2.9 8.8 -3.9 7.6 -14.3 23.2 -18.7 27.8 -1.9 2 -3.4 4 -3.4 4.4 0 0.4 -2.7 3 -6 5.9 -3.3 2.9 -6 5.9 -6 6.7 0 0.8 -0.6 1.4 -1.3 1.4 -0.8 0 -3.3 2.2 -5.6 5 -2.3 2.8 -4.8 5 -5.5 5 -0.8 0 -2.1 1.1 -3 2.5 -0.9 1.4 -2.3 2.5 -3.1 2.5 -0.8 0 -1.9 0.9 -2.5 2 -0.6 1.1 -1.7 2 -2.4 2 -0.8 0 -1.6 0.7 -2 1.5 -0.3 0.8 -1.2 1.5 -2.1 1.5 -0.8 0 -1.5 0.5 -1.5 1 0 0.6 -0.4 1 -0.9 1 -0.6 0 -2.1 1 -3.5 2.3 -1.4 1.3 -4.2 3.2 -6.3 4.3 -2.1 1 -3.9 2.2 -4.1 2.7 -0.2 0.4 -1 0.7 -1.8 0.7 -0.8 0 -1.4 0.4 -1.4 0.9 0 0.5 -1.4 1.5 -3.2 2.2 -1.8 0.7 -4 2.1 -5 3.1 -1 1 -2.7 1.8 -3.8 1.8 -1.1 0 -2 0.5 -2 1 0 0.6 -0.9 1 -2 1 -1.1 0 -2 0.5 -2 1 0 0.6 -0.9 1 -1.9 1 -1.1 0 -2.1 0.3 -2.3 0.8 -0.1 0.4 -2.1 1.5 -4.3 2.6 -2.2 1 -4.8 2.2 -5.7 2.7 -1 0.5 -2.6 0.9 -3.5 0.9 -1 0 -3.2 0.8 -4.8 1.8 -1.7 1.1 -5.4 2.5 -8.3 3.1 -2.8 0.7 -5.2 1.7 -5.2 2.2 0 0.5 -1.1 0.9 -2.5 0.9 -1.4 0 -4 0.6 -5.8 1.3 -1.8 0.8 -4.9 1.7 -7.1 2.1 -2.1 0.4 -4.6 1.1 -5.5 1.6 -0.9 0.5 -3.6 1.2 -6.1 1.5 -7.6 1 -7.9 1.5 -4.5 8.2 10.6 21 31.4 38.7 54.5 46.1 19 6.1 36.5 5.4 60 -2.4 9.3 -3.1 28.6 -12.2 31.6 -14.9 0.6 -0.5 3.7 -2.8 6.9 -5 3.1 -2.2 6.6 -5 7.8 -6.3 1.1 -1.2 2.4 -2.2 2.9 -2.2 1 0 12.2 -11.2 13.1 -13.1 0.4 -0.8 3.1 -4.5 6.1 -8.3 3 -3.7 7.6 -11.1 10.3 -16.4 2.6 -5.3 5.3 -10.2 6 -10.9 2 -2.2 6 -1.5 11.5 2.1 13 8.2 26.9 13.5 42.9 16.2 16.5 2.7 39 1 54.9 -4.3 7.6 -2.5 21.4 -8.6 22.9 -10.1 1.2 -1.2 3.6 -1.3 12 -0.8 16.6 1.1 31.7 -1.9 47.6 -9.3 4.4 -2.1 10.1 -5.4 12.8 -7.4 2.6 -2.1 5.1 -3.7 5.6 -3.7 1.1 0 4.1 -3.5 5.5 -6.3 2 -3.9 7 -3.4 16.6 1.7 4.7 2.4 11 5.4 14 6.6 8.9 3.5 26.9 7.8 39.6 9.4 43.5 5.8 90.4 -5.9 116.3 -28.9 2 -1.7 4.4 -3.5 5.4 -3.8 0.9 -0.4 2.1 -1.7 2.6 -3 0.5 -1.4 2.1 -3.3 3.5 -4.5 1.4 -1.1 2.6 -2.2 2.6 -2.6 0 -0.3 1.8 -3.3 4 -6.7 2.1 -3.3 4.2 -7 4.5 -8 0.5 -1.4 1.6 -1.9 4 -1.9 3.2 0 3.3 0.1 2.5 3.3 -1.7 7 -5.1 16 -8.6 22.9 -7.9 15.9 -17.8 26.6 -35 38 -41.8 27.6 -94.2 40.2 -124.3 29.8 -3.4 -1.2 -6.4 -2 -6.5 -1.9 -0.2 0.2 -2.1 3.6 -4.4 7.4 -8.7 15.1 -21.7 30.1 -34.2 39.6 -21.5 16.2 -50.8 23.2 -77.5 18.4 -13.9 -2.4 -30.8 -9 -41.7 -16.2 -4.2 -2.9 -3.4 -3.1 -10.3 3 -1.1 1 -4.7 3.4 -8 5.2 -21.1 11.7 -49.7 9.7 -67.7 -4.8 -2.1 -1.7 -3.9 -2.8 -4.1 -2.6 -0.2 0.2 -1.6 2.6 -3.2 5.3 -3.9 6.9 -19.2 22.1 -31 30.8 -25.9 19 -52.3 30.3 -90.5 38.7 -3 0.7 -7.3 1.6 -9.5 2.1 -3.7 0.9 -15.5 2.8 -37.5 6.2 -11.4 1.7 -63.3 1.7 -75 0 -55.7 -8.3 -92.3 -21.6 -131 -47.5 -4.1 -2.8 -7.7 -5.3 -8 -5.6 -0.3 -0.3 -2.1 -1.8 -4 -3.2 -1.9 -1.5 -4.8 -3.8 -6.4 -5.2 -3.4 -2.9 -4 -2.8 -6.2 1.5 -0.9 1.7 -2 3.6 -2.5 4.2 -0.5 0.6 -3.3 4.3 -6.1 8.1 -5.4 7.4 -27.5 29.9 -34.3 35.1 -24.2 18.4 -52.9 32 -79.4 37.5 -20.9 4.4 -46.3 5.9 -63.6 3.8z"/>
 </g>
 <g fill="#e6f5ff">
  <path d="M1170.4 868.7 c-0.7 -0.4 -2 -0.7 -2.6 -0.6 -3 0.5 -18.4 -4.4 -26.3 -8.4 -21.5 -10.7 -42.3 -33.5 -44.9 -49.3 l-0.7 -4.1 4.5 -1.2 c2.5 -0.6 5.6 -1.1 7 -1.1 1.4 0 2.7 -0.4 3 -0.9 0.4 -0.5 2.5 -1.2 4.8 -1.6 2.2 -0.4 5.6 -1.4 7.4 -2.1 1.8 -0.8 4.5 -1.4 5.9 -1.4 1.4 0 2.5 -0.4 2.5 -0.9 0 -0.5 2.4 -1.5 5.2 -2.2 2.9 -0.6 6.6 -2 8.3 -3.1 1.6 -1 3.8 -1.8 4.8 -1.8 0.9 0 2.5 -0.4 3.5 -0.9 0.9 -0.5 3.5 -1.7 5.7 -2.7 2.2 -1.1 4.2 -2.2 4.3 -2.6 0.2 -0.5 1.2 -0.8 2.3 -0.8 1 0 1.9 -0.4 1.9 -1 0 -0.5 0.9 -1 2 -1 1.1 0 2 -0.4 2 -1 0 -0.5 0.9 -1 2 -1 1.1 0 2.8 -0.8 3.8 -1.8 1 -1 3.2 -2.4 5 -3.1 1.8 -0.7 3.2 -1.7 3.2 -2.2 0 -0.5 0.6 -0.9 1.4 -0.9 0.8 0 1.6 -0.3 1.8 -0.7 0.2 -0.5 2 -1.7 4.1 -2.7 2.1 -1.1 4.9 -3 6.3 -4.3 1.4 -1.3 2.9 -2.3 3.5 -2.3 0.5 0 0.9 -0.4 0.9 -1 0 -0.5 0.7 -1 1.5 -1 0.9 0 1.8 -0.7 2.1 -1.5 0.4 -0.8 1.2 -1.5 2 -1.5 0.7 0 1.8 -0.9 2.4 -2 0.6 -1.1 1.7 -2 2.5 -2 0.8 0 2.2 -1.1 3.1 -2.5 0.9 -1.4 2.2 -2.5 3 -2.5 0.7 0 3.2 -2.3 5.5 -5 2.3 -2.7 4.8 -5 5.6 -5 0.8 0 1.2 -0.4 0.8 -0.9 -0.3 -0.5 2.4 -3.5 6 -6.7 3.5 -3.1 6.2 -6 6 -6.4 -0.2 -0.4 0.9 -1.7 2.6 -2.9 1.7 -1.3 2.8 -2.5 2.5 -2.8 -0.3 -0.3 0.5 -1.4 1.7 -2.4 1.2 -1 1.8 -1.8 1.2 -1.9 -0.5 0 0.1 -0.7 1.3 -1.6 1.2 -0.8 2 -1.9 1.7 -2.4 -0.3 -0.4 0.2 -1.1 1.1 -1.4 0.8 -0.3 1.3 -1 1 -1.5 -0.3 -0.5 0.1 -1.2 1 -1.5 0.8 -0.3 1.3 -1 1 -1.5 -0.3 -0.5 0.1 -1.2 1 -1.5 0.8 -0.3 1.2 -1 0.9 -1.6 -0.3 -0.5 -0.1 -1 0.6 -1 0.7 0 0.9 -0.3 0.6 -0.7 -0.4 -0.3 0 -1.1 0.8 -1.7 0.7 -0.6 1.5 -1.8 1.7 -2.6 0.2 -0.8 0.9 -2.1 1.6 -2.8 0.7 -0.8 1 -1.8 0.7 -2.3 -0.4 -0.5 -0.1 -0.9 0.5 -0.9 0.6 0 0.9 -0.4 0.6 -0.9 -0.4 -0.5 0 -1.2 0.6 -1.4 0.7 -0.3 0.3 -0.6 -0.9 -0.6 -1.2 -0.1 -3.2 1.2 -4.6 2.9 -1.4 1.7 -3 3 -3.6 3 -0.6 0 -1.8 1.1 -2.7 2.5 -0.9 1.4 -2.3 2.5 -3 2.5 -0.8 0 -1.7 0.7 -2 1.5 -0.4 0.8 -1.2 1.5 -2 1.5 -0.8 0 -1.9 0.9 -2.6 2 -0.7 1.1 -1.6 2 -2 2 -1.5 0 -23.7 15.8 -23.1 16.4 0.3 0.3 -0.2 0.6 -1.1 0.6 -1 0 -4.8 1.7 -8.4 3.9 -32.7 19 -76.9 35.4 -113.9 42.2 -4 0.7 -7.3 1.6 -7.3 1.9 0 0.3 -2.8 0.6 -6.2 0.8 -3.4 0.1 -6.4 0.6 -6.8 1 -0.3 0.4 -4.3 0.8 -9 1 -4.7 0.2 -8.9 0.7 -9.4 1.2 -0.5 0.5 -2.8 0.7 -5.2 0.3 -2.4 -0.3 -5.1 -0.2 -6.1 0.1 -0.9 0.4 -9.9 0.6 -19.8 0.5 -22.9 -0.3 -26.2 -0.4 -30.5 -1.2 -1.9 -0.4 -6.2 -0.9 -9.5 -1.1 -3.3 -0.3 -6.7 -0.7 -7.5 -1 -0.8 -0.3 -3.6 -0.7 -6.2 -0.9 -2.5 -0.3 -5 -0.7 -5.5 -1 -0.5 -0.3 -2.7 -0.8 -4.8 -1.1 -4.5 -0.6 -15.9 -3.5 -28.5 -7.3 -29.2 -8.7 -63 -26.2 -90.5 -46.7 -5.6 -4.2 -10.1 -6.9 -10.3 -6.2 -0.1 0.7 1 3.9 2.5 7.2 1.5 3.2 2.9 7 3.1 8.4 0.2 1.3 0.6 2.7 1 3 0.4 0.3 0.9 2.3 1 4.5 0.2 2.2 0.7 4.5 1.2 5 1.2 1.5 1 30.5 -0.2 30.5 -0.6 0 -0.8 1.2 -0.4 3 0.3 1.9 0.1 3 -0.5 3 -0.6 0 -0.9 0.7 -0.5 1.5 0.3 0.8 0 1.5 -0.5 1.5 -0.6 0 -0.9 0.9 -0.6 2 0.3 1.1 0.1 2 -0.5 2 -0.6 0 -0.8 0.7 -0.4 1.5 0.3 0.8 0.1 1.5 -0.5 1.5 -0.6 0 -0.9 0.7 -0.5 1.5 0.3 0.8 0.1 1.5 -0.5 1.5 -0.6 0 -0.7 0.5 -0.4 1 0.3 0.6 0.1 1 -0.5 1 -0.7 0 -1 0.7 -0.6 1.5 0.3 0.8 0.1 1.5 -0.5 1.5 -0.6 0 -0.7 0.5 -0.4 1 0.3 0.6 0.1 1 -0.5 1 -0.6 0 -0.8 0.5 -0.5 1 0.3 0.6 0.1 1 -0.5 1 -0.6 0 -0.8 0.5 -0.5 1 0.3 0.6 0.1 1 -0.5 1 -0.6 0 -0.8 0.5 -0.5 1 0.3 0.6 0.1 1 -0.6 1 -0.7 0 -1 0.3 -0.7 0.6 0.4 0.3 -0.2 1.4 -1.3 2.5 -1.1 1.1 -1.7 2.4 -1.4 2.8 0.2 0.5 -0.2 1.2 -1.1 1.5 -0.8 0.3 -1.3 1 -1 1.5 0.3 0.5 -0.1 1.2 -1 1.5 -0.9 0.4 -1.4 0.9 -1 1.3 0.3 0.3 -0.3 1.3 -1.4 2 -1.1 0.8 -1.8 1.8 -1.6 2.2 0.3 0.4 -0.8 1.8 -2.4 3 -1.7 1.2 -2.9 2.5 -2.7 2.9 0.3 1.1 -8.8 10.2 -10.1 10.2 -0.6 0 -1.9 1.1 -3 2.5 -1.1 1.4 -2.2 2.5 -2.5 2.5 -0.4 0 -3.4 2 -6.9 4.4 -11.4 7.9 -32 16.6 -39.4 16.6 -1.3 0 -2.4 0.3 -2.4 0.8 0 1.4 -22.4 0.5 -29 -1.3 -13.8 -3.7 -26.2 -11.6 -35.8 -22.7 -5.2 -6.1 -5.2 -6.1 -17.2 -2.5 -4.7 1.4 -11.4 3.1 -15 3.7 -3.6 0.6 -8.9 1.5 -11.7 2.1 -3.8 0.7 -6.9 0.7 -10.7 -0.1 -3 -0.6 -6.1 -1 -6.8 -0.9 -0.7 0.1 -2 0 -2.8 -0.3 -0.8 -0.3 -3.7 -1.4 -6.5 -2.3 -9.6 -3.4 -17.9 -10.7 -21.4 -18.9 -3.5 -7.8 -4 -10.9 -3.6 -20.5 0.4 -10.9 0.8 -14 2.4 -17 0.7 -1.2 0.9 -2.6 0.6 -3.1 -0.3 -0.5 -0.1 -1.1 0.5 -1.5 0.6 -0.4 0.8 -1.1 0.5 -1.6 -0.4 -0.5 -0.1 -0.9 0.6 -0.9 0.7 0 1 -0.3 0.6 -0.6 -0.3 -0.4 0.1 -1.3 0.9 -2.1 0.8 -0.8 1.2 -1.9 0.9 -2.4 -0.4 -0.5 -0.1 -0.9 0.6 -0.9 0.7 0 1 -0.3 0.6 -0.6 -0.3 -0.3 0.3 -1.5 1.3 -2.7 1.1 -1.1 1.7 -2.3 1.5 -2.7 -0.3 -0.5 0.2 -1.1 1.1 -1.4 0.9 -0.4 1.4 -0.9 1.1 -1.3 -0.4 -0.3 0.5 -1.4 1.8 -2.5 1.4 -1 2.4 -2.2 2.3 -2.6 -0.2 -0.7 8.9 -10.2 9.7 -10.2 0.3 0 2.9 -1.6 5.7 -3.6 6.6 -4.7 16.5 -9.3 21.4 -10.1 2.2 -0.3 4.1 -0.9 4.4 -1.3 0.3 -0.3 2.5 -1.2 4.9 -1.9 2.4 -0.7 5.1 -1.9 5.9 -2.7 0.8 -0.8 2.7 -1.8 4.3 -2.1 1.6 -0.3 2.9 -0.9 2.9 -1.3 0 -0.5 2 -1.6 4.5 -2.6 2.5 -0.9 4.5 -2.1 4.5 -2.5 0 -0.5 0.7 -0.9 1.5 -0.9 0.8 0 1.5 -0.4 1.5 -1 0 -0.5 0.7 -1 1.5 -1 0.8 0 1.5 -0.4 1.5 -1 0 -0.5 0.7 -1 1.5 -1 0.9 0 1.8 -0.7 2.1 -1.5 0.4 -0.8 1.2 -1.5 2 -1.5 0.7 0 1.8 -0.9 2.4 -2 0.6 -1.1 1.5 -2 2.1 -2 0.6 0 4.7 -3.6 9.1 -8 4.5 -4.4 7.8 -8 7.3 -8 -0.4 0 0.4 -0.9 1.9 -2.1 1.4 -1.1 2.4 -2.4 2.1 -2.9 -0.3 -0.4 0.2 -1.1 1.1 -1.4 0.8 -0.3 1.3 -1 1 -1.5 -0.3 -0.5 0.2 -1.2 1.1 -1.5 1.3 -0.5 1.4 -0.9 0.3 -1.9 -1 -0.9 -1.3 -0.9 -1.7 0.1 -0.3 0.6 -0.9 1.2 -1.4 1.2 -0.8 0 -17.6 10.7 -18.9 12 -0.3 0.3 -2.5 1.4 -4.9 2.5 -2.4 1.1 -4.9 2.4 -5.5 3 -4.3 4 -39.3 16.5 -53.6 19.1 -5.2 1 -9.7 2.1 -10 2.5 -0.8 0.9 -51.2 0.8 -53.1 -0.1 -0.8 -0.5 -3.8 -1.1 -6.5 -1.4 -11.1 -1.2 -38.1 -9.6 -53.3 -16.7 -4.6 -2.2 -8.7 -3.7 -8.9 -3.4 -0.9 0.9 6.9 8.4 15.2 14.6 4.4 3.3 13.2 8.5 19.5 11.7 11.4 5.6 14 7.4 12.1 8 -0.6 0.2 -0.8 0.8 -0.5 1.2 0.3 0.5 -0.4 1.4 -1.6 2 -1.1 0.7 -1.8 1.4 -1.5 1.7 0.7 0.7 -2.3 4.3 -3.5 4.3 -0.5 0 -2.9 1.5 -5.3 3.3 -5.3 4.1 -15.4 8.3 -24.1 9.9 -3.6 0.7 -6.5 1.5 -6.5 1.8 0 0.6 -24 0.3 -26 -0.3 -0.8 -0.3 -2.2 -0.6 -3 -0.6 -2.9 -0.2 -6.5 -0.8 -8 -1.4 -0.8 -0.3 -4 -1.3 -7 -2.2 -13.4 -4.2 -27.4 -14 -36.7 -25.6 -5.6 -7 -11.6 -16.7 -11.6 -18.6 0 -0.7 -0.4 -1.3 -0.9 -1.3 -0.4 0 -0.8 -0.6 -0.8 -1.4 0 -0.7 -1.1 -3.9 -2.5 -7 -1.4 -3.1 -2.2 -5.6 -1.9 -5.6 0.4 0 0.2 -0.6 -0.4 -1.2 -0.6 -0.7 -1.3 -3.3 -1.7 -5.8 -0.4 -2.4 -0.9 -4.8 -1.1 -5.2 -0.3 -0.4 -0.7 -2.7 -1 -5 -0.3 -2.4 -0.9 -6.8 -1.4 -9.8 -1.2 -7.3 -1.1 -24.4 0.1 -30 1.2 -5.5 9.5 -23.2 13.9 -29.5 2.3 -3.4 4.8 -5.4 9.8 -7.9 20.5 -10.3 45.7 -15.6 74.2 -15.6 32.3 0 57.4 6.5 77.9 20.2 2.4 1.6 4.5 2.8 4.6 2.6 0.2 -0.2 1.7 -3 3.4 -6.2 10.7 -20.2 33.7 -37.2 59 -43.5 11.9 -3 32.3 -3 44.2 0 10.5 2.6 22.6 8.8 29.2 14.9 l5.1 4.7 3.6 -9.1 c7 -17.5 16.5 -31.2 32.3 -46.2 27.1 -25.9 58.8 -38.5 93.6 -37.1 15.7 0.6 25.3 3.1 36 9.4 12.6 7.5 25.1 23.7 25.1 32.7 l0 4.6 -12.2 6.1 c-6.8 3.4 -16.8 8.9 -22.3 12.2 -9.8 5.9 -26.5 17.4 -26.5 18.3 0 0.2 1.7 -0.3 3.7 -1.2 39.7 -17 88.6 -30.2 132.3 -35.8 23.8 -3.1 39.4 -4 68 -4 46.1 0 82.6 4.4 125.5 15 14.9 3.7 45.3 13.1 54.8 16.9 3.1 1.3 5.7 2.1 5.7 1.9 0 -1.4 -23.7 -15.6 -38 -22.8 -26.3 -13.2 -47.4 -20.5 -80.1 -28 -4.3 -1 -14.8 -9.3 -17.9 -14.3 -2.6 -4 -3 -5.7 -3 -11.6 0 -5.1 0.5 -7.8 1.9 -10.1 5 -8 18 -13.8 40.1 -17.7 10.3 -1.9 58.6 -1.9 69 -0.1 31.4 5.7 53.4 13.9 74.4 27.9 21.8 14.5 40.4 38.1 46.7 59.3 0.7 2.2 1.5 4 1.8 4 0.3 0 1.7 -1.6 3 -3.5 3.3 -4.9 16.7 -17.5 23.7 -22.2 15 -10.2 34.8 -17.9 55.1 -21.3 14.7 -2.6 45.4 -2.8 61 -0.4 39 5.7 71.9 27.2 91.3 59.5 5.3 8.8 10.4 20.9 12.2 29.2 0.6 2.9 1.3 5.3 1.4 5.5 0.1 0.2 5.3 -0.7 11.5 -2 9.9 -1.9 14.4 -2.2 33.4 -2.2 16.9 0 23.7 0.4 29.3 1.7 30.1 6.9 52.3 21.5 67.7 44.6 8 12.2 11.7 29.6 11.7 56.1 0 21.9 -2.5 38 -5.8 38 -1.3 0 -1.8 1.2 -1.5 3.3 0 0.4 -0.4 0.7 -1 0.7 -0.5 0 -0.7 0.5 -0.4 1 0.3 0.6 0.1 1 -0.5 1 -0.6 0 -0.9 0.4 -0.6 0.9 0.3 0.5 -0.1 1.2 -1 1.5 -0.8 0.3 -1.3 1 -1 1.5 0.3 0.5 -0.1 1.2 -1 1.5 -0.8 0.3 -1.3 1 -1 1.5 0.3 0.5 -0.1 1.2 -0.9 1.5 -0.8 0.3 -1.4 0.9 -1.3 1.4 0.2 0.5 -1.2 2.1 -3 3.7 -1.8 1.5 -3 3 -2.7 3.3 0.7 0.7 -2.5 4.2 -4 4.2 -0.6 0 -2.2 1.1 -3.5 2.5 -9.2 9.8 -34.8 22.4 -53.7 26.6 -3.5 0.7 -6.3 1.6 -6.3 1.9 0 0.3 -2.8 0.6 -6.3 0.8 -3.4 0.2 -6.3 0.7 -6.5 1.1 -0.2 0.5 -2.1 0.7 -4.2 0.4 -2.2 -0.3 -4 -0.2 -4 0.3 0 1.4 -33 0.6 -42 -1 -1.9 -0.3 -5.3 -0.8 -7.5 -1 -5.4 -0.6 -25.8 -6 -32.5 -8.6 -3 -1.2 -9.3 -4.1 -13.9 -6.6 -6.4 -3.4 -8.7 -4.2 -9.7 -3.3 -0.8 0.6 -1.2 1.5 -0.9 1.9 0.5 0.8 -3.2 4.6 -6.3 6.4 -1 0.6 -4.6 3 -8.1 5.3 -7.3 4.9 -17.9 9.5 -27.6 11.9 -3.8 0.9 -7.7 1.9 -8.5 2.2 -0.8 0.3 -2.7 0.4 -4.2 0.3 -1.6 -0.2 -2.8 0.2 -2.8 0.7 0 0.9 -14.9 0.7 -21.1 -0.4 -2.4 -0.4 -4 -0.1 -5 0.8 -2.7 2.7 -23.5 10.9 -31.2 12.3 -2 0.4 -3.7 1 -3.7 1.4 0 0.3 -2.8 0.7 -6.3 0.9 -3.4 0.1 -6.3 0.6 -6.4 1 -0.3 0.8 -26.7 0.7 -30.3 -0.2 -1.4 -0.3 -4.3 -0.8 -6.5 -1 -2.2 -0.2 -4.7 -0.6 -5.5 -0.8 -0.8 -0.3 -5.5 -1.8 -10.5 -3.3 -9.6 -2.9 -17.8 -6.7 -26 -12 -4.2 -2.7 -5.3 -3 -6.3 -1.8 -0.7 0.7 -1 1.8 -0.7 2.3 0.3 0.6 0.1 1 -0.5 1 -0.6 0 -0.8 0.5 -0.5 1 0.3 0.6 0.1 1 -0.5 1 -0.6 0 -0.8 0.5 -0.5 1 0.3 0.6 0.1 1 -0.5 1 -0.6 0 -0.8 0.5 -0.5 1 0.3 0.6 0.1 1 -0.5 1 -0.6 0 -0.8 0.5 -0.5 1 0.3 0.6 0.1 1 -0.5 1 -0.6 0 -0.8 0.5 -0.5 1 0.3 0.6 0.1 1 -0.5 1 -0.6 0 -0.9 0.4 -0.6 0.9 0.3 0.5 -0.1 1.2 -1 1.5 -0.8 0.3 -1.2 1 -0.9 1.6 0.3 0.5 0.1 1 -0.5 1 -0.6 0 -0.9 0.4 -0.6 0.9 0.3 0.5 -0.1 1.2 -1 1.5 -0.8 0.3 -1.3 1 -1 1.5 0.3 0.5 -0.1 1.2 -1 1.5 -0.9 0.4 -1.4 0.9 -1.1 1.3 0.4 0.3 -0.5 1.5 -1.9 2.5 -1.4 1.1 -2.3 2.3 -2 2.5 0.3 0.3 -0.6 1.4 -1.9 2.5 -1.4 1 -2.4 2.2 -2.2 2.6 0.2 0.9 -12 13.2 -13.1 13.2 -0.5 0 -1.8 1 -2.9 2.3 -1.2 1.2 -4.7 4 -7.8 6.2 -3.2 2.2 -6.3 4.5 -6.9 5 -0.6 0.6 -5.6 3.3 -11.1 6.2 -10.7 5.5 -28.3 11.9 -35.9 12.9 -2.5 0.4 -4.6 1 -4.6 1.4 0 0.3 -1.3 0.5 -3 0.2 -1.6 -0.2 -3 0 -3 0.4 0 1.1 -21.6 1.2 -23.6 0.1z"/>
 </g>
 <g fill="#ffffff">
  <path d="M1727.5 637.2 c-11.7 -22.3 -33.1 -40.4 -57.9 -48.7 -14.7 -4.9 -20.9 -5.8 -41.1 -5.9 -17.1 0 -20.4 0.3 -32.8 2.8 -7.7 1.5 -14.2 2.4 -14.6 2 -0.4 -0.5 -1.3 -3.2 -1.9 -6.1 -4.5 -20.7 -20.6 -45.6 -38.9 -60.3 -26.6 -21.5 -52.7 -30 -91.6 -30 -32.4 0 -60.4 7.8 -83.2 23.3 -8.2 5.6 -21.2 18.4 -26 25.6 -2.2 3.3 -4.3 6.1 -4.7 6.1 -0.3 0 -1.5 -3.1 -2.7 -6.9 -12.8 -42.2 -51.5 -74.2 -104.6 -86.6 -19.4 -4.5 -24.2 -5 -49 -5 -26.5 0 -34.7 1 -52 6.3 -4 1.2 -11.2 4.9 -14.8 7.6 -7.2 5.3 -8.6 13.2 -3.7 20.9 3.1 5 13.6 13.3 17.9 14.3 32.7 7.5 53.8 14.8 80.1 28 17.6 8.9 30 16.5 44.5 27.4 8.9 6.8 15.4 12.8 12.5 11.8 -0.8 -0.4 -9.4 -3.8 -19 -7.6 -47.4 -19 -95.4 -30.3 -149 -35.3 -17.2 -1.6 -62.5 -1.6 -80 0 -63.8 5.8 -121.1 21.1 -176.4 47 -6 2.8 -11.1 4.9 -11.3 4.7 -0.7 -0.7 11.9 -11.6 23.3 -20.2 13.5 -10.1 28.7 -19.5 45.7 -28 8.4 -4.3 12.7 -7 12.7 -8 0 -3 -6.3 -12.6 -12.5 -19.3 -22.8 -24.1 -62.9 -26.7 -102.7 -6.6 -12.8 6.5 -22.7 13.5 -34 24.3 -18.1 17.4 -27 31.6 -36.2 57.6 -0.5 1.6 -1.7 0.8 -7.9 -5 -28.8 -27.4 -75.4 -25.7 -111.1 4 -6.7 5.6 -15.1 16.6 -18.9 24.8 -1.7 3.7 -3.6 6.8 -4 6.8 -0.5 0 -2.6 -1.3 -4.6 -2.8 -36.1 -27.9 -103.4 -31 -151.6 -6.9 -4.4 2.1 -9.3 4.9 -11 6.1 l-3 2.1 1.9 -3 c14.2 -22.5 37.8 -40.4 61.6 -46.7 6 -1.5 25.2 -3.8 32.5 -3.8 7.2 0 26.4 2.2 34.5 3.9 11.6 2.4 22.3 7.1 29.7 12.9 l5.1 4.1 1.1 -3.1 c0.6 -1.7 1.1 -3.8 1.1 -4.6 0 -0.9 1.8 -5.3 4.1 -9.9 11.9 -24.8 45.7 -42.2 81.9 -42.3 9.6 0 26.8 2.8 33 5.4 1 0.4 1.9 -0.4 2.9 -2.6 4.4 -10 17.9 -31 27.5 -42.8 19 -23.4 38.2 -41 61.6 -56.7 44 -29.3 93.2 -44.3 145.5 -44.3 41.2 0 83.4 10 119.9 28.3 11.4 5.7 9.2 6.4 17.6 -5.4 5.7 -7.9 18.6 -20.9 27.6 -27.7 14.4 -11 36.2 -19.5 64.9 -25.3 14.7 -3 17.5 -3.3 35.5 -3.3 18.3 0 20.1 0.1 29.5 2.7 24.8 6.9 43.9 19.1 58 37.2 9.7 12.4 18 29.1 21.6 43.5 1.6 6 3.9 22.1 3.9 26.7 0 2.3 0.4 4.3 1 4.3 0.5 0 4.2 -1.1 8.2 -2.4 22.6 -7.5 31.1 -9.1 48.3 -9.1 16.6 0 23.3 1.5 34.5 7.7 6.9 3.8 16.5 13 19.2 18.3 1.1 2.2 2.1 4.1 2.2 4.2 0.1 0.2 4.5 -1.9 9.7 -4.6 5.2 -2.6 10.3 -5 11.4 -5.3 1.1 -0.4 5.2 -1.7 9 -3.1 32.6 -11.7 66.9 -10.8 95.5 2.6 19.3 9 36.4 25.7 46.1 45 7.4 14.5 9.4 23.1 9.4 39.4 l0 13.1 11.2 -0.5 c13.6 -0.7 24.6 0.8 39.8 5.5 5.6 1.7 21 9.9 27.5 14.7 6 4.4 18.7 16.5 23.6 22.6 8.3 10.2 15.6 24 19.9 37.6 2.9 9.1 2.8 8.3 1.3 8.3 -0.7 0 -2.6 -2.6 -4.3 -5.8z"/>
 </g>
</svg>