<svg xmlns="http://www.w3.org/2000/svg" viewBox="0 0 500 500"><g id="freepik--wind-turbine-1--inject-156"><polygon points="215.97 234.34 219.68 229.97 215.96 234.05 215.97 234.34" style="fill:none"></polygon><path d="M318.75,233l-13.34-10.88s-19.84-20-23-25.78-8.08-10.33-17-13.91l-.28-.12a7,7,0,0,0,3.62-6.91c-.44-5-8.39-12.92-13.89-15.68l-1.31-12.54h-2.26l-.68-7.71s.62-34.51,2.43-56.33,3.41-32.79,4.39-46.09,2.75-10.68-.87-12.94c-3-1.87-10.87,19.83-11.46,22-3.57,13.42-13.25,40.21-13.25,55.57,0,13.12-1.95,18.11,3.49,26.15,6.83,10.1,4.37,18.71,4.37,18.71l-1.78.33-1.45.26-.66,4.14-.48,3.15s-7.39-.33-11,4.15a75.51,75.51,0,0,0-27.57-.84c-15.47,2.33-28.78,7.68-31.38,10s-4.58,12.9-2.66,18.32l34,2v.17l19.15,1.58v-.07h1.55l8.93.05.21.89,1,.08-1-.08,2,2.12c-2.38,3.71-6.78,7.76-9.21,10.57a9.61,9.61,0,0,1-3.45,2.51v-.17c-3.07,3.17-8.25,8.26-12.36,10.89-3.18,2-7.14,4.7-10.28,6.83-4,3.1-10.32,10.18-16,20-5.94,10.28-16.7,27.81-22.42,34.92-2.6,7.37,11.46-2.58,11.46-2.58s20.06-23.37,23.91-28c1.68-2,24.21-26.86,24.21-26.86l11.33-12.25,11.55-11.57a26.51,26.51,0,0,0,2.16,1.57,3.35,3.35,0,0,0,3.26.15c1.73-1.12,5.35-9,5.35-9l4.82-1.23.11,0,3.13-.81,1.5,1.73,65.28,53.55,2.5.11-1.07-3.24Z" style="fill:#fff"></path><polygon points="204.44 232.38 202.41 278.66 199.25 350.63 195.93 426.05 230.26 426.05 225.77 208.75 204.44 232.38" style="fill:#fff"></polygon><path d="M215.92,216.91s1.06-1.16,2.61-2.94c0,0-1,1.13-2.61,2.77Z" style="fill:none"></path><path d="M218.53,214A109.43,109.43,0,0,0,227,203.09l-.34-1.38-.21-.89-8.93,0h-1.55v16C217.5,215.1,218.53,214,218.53,214Z" style="fill:none"></path><path d="M225.76,206.38V190.47l-19.15-1.58-1.49,33.7s-.75.55-2,1.51c3.14-2.13,7.11-4.79,10.28-6.82C217.51,214.65,222.7,209.55,225.76,206.38Z" style="fill:#fff"></path><polygon points="226.4 200.82 217.47 200.77 215.92 200.76 215.92 200.83 226.61 201.71 226.4 200.82" style="fill:none"></polygon><path d="M218.53,214A109.43,109.43,0,0,0,227,203.09l-.34-1.38-10.69-.88v16.08S217,215.75,218.53,214Z" style="fill:none"></path><path d="M259.69,185.89l-2.18,1.25-2.08.85-2.41.61-.11,0-4.82,1.23s-3.62,7.91-5.35,9c-1.09.7-4.77-.53-5.61-1l3.19-3.92s-.89-6-8.8-5.28l-2.94,4.51s-3.41-5.56-3.26-6.34-4.7-5.89-5.45-13.39,2.95-22.15,22.16-18.17c0,0-6.21.6-8.73,10.84S246,183.68,259.69,185.89Z" style="fill:#ECEFF1"></path><polygon points="203.56 244.62 221.84 225.62 220.24 214.88 204.71 232.81 203.56 244.62" style="fill:#ECEFF1"></polygon><path d="M216.6,174.56v-2.45l10.48,10.32-.85,6.83v17.19a122.81,122.81,0,0,1-9.52,8.15C216.94,191.08,217,175.34,216.6,174.56Z" style="fill:#ECEFF1"></path><path d="M230.26,450.49H213.18c.43-23.55,4.15-162.91,5-233.58l7.52-7.21Z" style="fill:#ECEFF1"></path><path d="M324.75,243.5c-2.64,1.31-68.25-55.95-68.25-55.95l-1.34-.67A24.13,24.13,0,0,0,265.72,182c8.92,3.58,15.62,11.54,18.72,17.26s20.49,20.5,20.49,20.5l16.4,16.11S327.38,242.18,324.75,243.5Z" style="fill:#ECEFF1"></path><path d="M220.35,167.62s-48.88-2.88-54.11-.45-5.09,14.63-3.5,19l62.53,3.66,0-2.89.15-.78S219,181.63,220.35,167.62Z" style="fill:#ECEFF1"></path><path d="M235.37,189.26s-7.43,22.4-20.93,27.91c-24.66,10.08-34.8,31.31-54.88,55.38,0,0,14.29-23.68,22.25-36.29,11.77-18.67,24.39-24,30.24-27.51a55.72,55.72,0,0,0,19.47-20Z" style="fill:#ECEFF1"></path><path d="M242.11,119.26c5,17.12,3,27.92,3,27.92H238v-.26l1.78-.33s2.13-4.75-3.41-15.62c-2.65-5.2-3.57-3.72-4.67-19s12.4-69.32,21-84.26C253.75,25.69,232.81,87.41,242.11,119.26Z" style="fill:#ECEFF1"></path><path d="M235.37,154.47c-5.75.21-10.17,1.55-12.91,7-4,8-3.61,18.68,3,24.66" style="fill:none;stroke:#263238;stroke-linecap:round;stroke-linejoin:round;stroke-width:1.021268606185913px"></path><path d="M248.09,189.87c10.74-2.12,20.29-8,20.68-13.44s-6-12.46-14.7-17.16" style="fill:none;stroke:#263238;stroke-linecap:round;stroke-linejoin:round;stroke-width:1.021268606185913px"></path><path d="M254.89,159.72l-1.31-12.54H236.51l-1.14,7.29s3.25-.11,9.76,1.65" style="fill:none;stroke:#263238;stroke-linecap:round;stroke-linejoin:round;stroke-width:1.021268606185913px"></path><path d="M240.2,147.18s1.34-6.68-5.91-19.53-.08-43.16,6-65,11.19-37.59,16.3-38.56-4.3,55.53-4.84,80-2.46,30.62-1.45,43.05" style="fill:none;stroke:#263238;stroke-linecap:round;stroke-linejoin:round;stroke-width:1.021268606185913px"></path><path d="M240.32,194s-3.46-7-8.8-5.28c-4.51,6.46-9.87,13.8-16.73,18.27-7.2,4.7-14.76,8.13-20.92,14.14a96.19,96.19,0,0,0-15,19.88c-7.24,12.17-13.23,25.15-22.88,35.79-.81.9-1.7,2.13-1.05,3.14s2.63.76,3.9.14c7.91-3.9,12.75-11.22,18.28-17.44,4.39-4.93,8.75-9.88,13.14-14.81,10.09-11.31,20.22-22.58,30.52-33.71,3.89-4.21,7.81-8.41,11.81-12.54C233.15,201,240.5,194.4,240.32,194Z" style="fill:none;stroke:#263238;stroke-linecap:round;stroke-linejoin:round;stroke-width:1.021268606185913px"></path><path d="M227.33,191.56s-1.93-3.17-2-4.65,3.26-6.2,3.26-6.2" style="fill:none;stroke:#263238;stroke-linecap:round;stroke-linejoin:round;stroke-width:1.021268606185913px"></path><path d="M238.62,198.22s3.29,1.53,4.54,0,5.44-9.29,5.44-9.29-5.68-7.29-10-8.22" style="fill:none;stroke:#263238;stroke-linecap:round;stroke-linejoin:round;stroke-width:1.021268606185913px"></path><path d="M256.15,187.54c12.93,11.37,64.64,56,68,56,3.81,0-1.57-6.32-4.37-9.57s-29.45-24.83-36.81-36.89a37.75,37.75,0,0,0-17.77-14.81" style="fill:none;stroke:#263238;stroke-linecap:round;stroke-linejoin:round;stroke-width:1.021268606185913px"></path><path d="M226.39,189.87,212.12,189l-7.58-.46-17.88-1-7.51-.44-16.41-1s-2.8-15,3.5-19c4.26-2.68,17.16-6.42,27-8.64a72.31,72.31,0,0,1,10.81-1.84,60.28,60.28,0,0,1,6.67.29c3.17.28,6.57.69,9.3,1.05,1.27.15,3.43.19,4.3.32" style="fill:none;stroke:#263238;stroke-linecap:round;stroke-linejoin:round;stroke-width:1.021268606185913px"></path><line x1="206" y1="212.05" x2="206.98" y2="189.56" style="fill:none;stroke:#263238;stroke-linecap:round;stroke-linejoin:round;stroke-width:1.021268606185913px"></line><path d="M225.77,208.75c.79,67.5,4.49,241.74,4.49,241.74H195.94l8.5-218.11" style="fill:none;stroke:#263238;stroke-linecap:round;stroke-linejoin:round;stroke-width:1.021268606185913px"></path><path d="M210.75,157c-4.13,1.32-20.2,6.61-21.94,9.53-2.42,4.07-2.31,16-2.15,21l-7.51-.44c-.14-6.12-.07-17.74,2.4-21.85,2-2.4,6.9-4.8,11.72-6.72a72.31,72.31,0,0,1,10.81-1.84A60.28,60.28,0,0,1,210.75,157Z" style="fill:#263238"></path><path d="M224.35,158.62S214.7,163,213,167.7c-1.47,3.9-1,17-.83,21.34l-7.58-.46c0-5.46.15-18.4.92-21.76,1-4.29,14.59-8.79,14.59-8.79l3.25.44Z" style="fill:#263238"></path><path d="M226.52,259.43a81.56,81.56,0,0,1-13.42,1.82v32.34a38.58,38.58,0,0,0,14-.8" style="fill:none;stroke:#263238;stroke-linecap:round;stroke-linejoin:round;stroke-width:1.021268606185913px"></path><path d="M226.19,196.2c-.95,1.05-2,2.13-2.91,3.08a32.38,32.38,0,0,1-16.57-10.57l19.42,1.62Z" style="fill:#263238"></path></g></svg>
