<svg xmlns="http://www.w3.org/2000/svg" viewBox="0 0 500 500"><g id="freepik--Plants--inject-156"><path d="M323.29,457.39c.68-5.28,1-15-4.27-20.3-7.55-7.55-18.87,4.71-21.7,4.71s-3.78-7.54-12.27-14.15-18.87,1.89-24.53,0,4.72-31.13-11.32-32.07-21.7,39.62-33,39.62-13.21-7.55-24.53-.94c-8.87,5.17-13.68,17.86-15.35,23.13Z" style="fill:#00D957"></path><path d="M323.29,457.39c.68-5.28,1-15-4.27-20.3-7.55-7.55-18.87,4.71-21.7,4.71s-3.78-7.54-12.27-14.15-18.87,1.89-24.53,0,4.72-31.13-11.32-32.07-21.7,39.62-33,39.62-13.21-7.55-24.53-.94c-8.87,5.17-13.68,17.86-15.35,23.13Z" style="opacity:0.2"></path><line x1="207.07" y1="456.75" x2="197.48" y2="441.16" style="fill:none;stroke:#263238;stroke-linecap:round;stroke-linejoin:round"></line><line x1="243.89" y1="456.34" x2="248.95" y2="408.67" style="fill:none;stroke:#263238;stroke-linecap:round;stroke-linejoin:round"></line><line x1="273.12" y1="456.75" x2="278.06" y2="438.63" style="fill:none;stroke:#263238;stroke-linecap:round;stroke-linejoin:round"></line><line x1="309.03" y1="456.75" x2="313.92" y2="444.95" style="fill:none;stroke:#263238;stroke-linecap:round;stroke-linejoin:round"></line><polyline points="208.45 441.58 203.39 450.44 191.58 445.8" style="fill:none;stroke:#263238;stroke-linecap:round;stroke-linejoin:round"></polyline><polyline points="241.36 412.47 247.26 423.02 255.28 413.31" style="fill:none;stroke:#263238;stroke-linecap:round;stroke-linejoin:round"></polyline><polyline points="237.98 429.35 245.58 438.63 253.17 432.72" style="fill:none;stroke:#263238;stroke-linecap:round;stroke-linejoin:round"></polyline><line x1="275.95" y1="446.64" x2="286.07" y2="440.74" style="fill:none;stroke:#263238;stroke-linecap:round;stroke-linejoin:round"></line><line x1="275.11" y1="450.02" x2="270.04" y2="436.94" style="fill:none;stroke:#263238;stroke-linecap:round;stroke-linejoin:round"></line><line x1="311.39" y1="451.28" x2="308.85" y2="442.84" style="fill:none;stroke:#263238;stroke-linecap:round;stroke-linejoin:round"></line><line x1="310.54" y1="452.97" x2="317.71" y2="450.02" style="fill:none;stroke:#263238;stroke-linecap:round;stroke-linejoin:round"></line></g></svg>
