<?xml version="1.0" encoding="utf-8"?>
<!DOCTYPE svg PUBLIC "-//W3C//DTD SVG 20010904//EN" "http://www.w3.org/TR/2001/REC-SVG-20010904/DTD/svg10.dtd">
<svg version="1.0" xmlns="http://www.w3.org/2000/svg" width="5072px" height="3050px" viewBox="0 0 5072 3050" preserveAspectRatio="xMidYMid meet">
 <g fill="#e6f5ff">
  <path d="M3371.5 1744.1 c-20.8 -6.7 -55.8 -27.5 -72.7 -43.2 -12.2 -11.4 -15.7 -13 -30.3 -11 -9.4 0.8 -16.9 3.1 -16.9 4.7 0 2 -13 4.3 -28.3 5.9 -65.3 5.9 -122.3 -14.9 -171 -63.3 -17.3 -16.5 -28.7 -31.1 -28.7 -36.2 0 -7.1 -1.2 -7.5 -11.8 -3.5 -6.7 2.8 -9.8 5.5 -7.1 7.1 6.3 3.9 1.2 35.8 -6.3 41.3 -3.5 2.4 -6.3 6.3 -6.3 8.3 0 7.1 -35 36.6 -43.2 36.6 -4.3 0 -7.9 2 -7.9 3.9 0 2.4 -2.8 3.9 -5.9 3.9 -3.1 0 -5.9 2.4 -5.9 5.1 0 7.9 -27.9 20.4 -52.7 24 -8.6 1.2 -16.5 3.9 -18.1 6.3 -4.3 6.7 -73.1 9.4 -98.7 4.3 -12.2 -2.8 -31.5 -11 -45.2 -19.7 l-23.2 -15.3 -31.5 5.9 c-44.4 7.9 -138.4 4.7 -182.4 -6.3 -63.7 -16.1 -131.7 -56.6 -177.7 -105.8 -49.9 -53.5 -81.8 -127.8 -82.2 -191.9 l0 -20.1 32.6 -6.7 c76.3 -16.5 137.2 -41.3 189.9 -77.8 30.7 -20.8 49.1 -38.1 35.8 -33.4 -3.9 1.6 -8.3 2.8 -9 2.8 -0.8 0 -1.6 2.4 -1.6 5.1 0 6.3 -32.2 22.4 -44.8 22.4 -5.1 0 -10.2 2.8 -11.8 5.9 -1.2 3.5 -7.1 5.9 -13.4 5.9 -11.8 0 -36.6 7.1 -40.1 11.8 -1.2 1.2 -9 4.3 -17.7 7.1 -88.9 25.9 -201.3 35 -274 22.4 -28.3 -4.7 -43.6 -9 -93.2 -24.4 -3.5 -0.8 3.5 4.7 15.3 12.6 11.8 7.5 38.9 20.4 60.2 28.7 58.2 22 69.6 34.6 69.6 78.2 0 47.6 -19.3 90.8 -44.4 100.7 -3.5 1.2 -8.3 7.1 -10.6 12.2 -4.3 12.2 -34.6 29.9 -58.2 34.6 -9.8 1.6 -18.9 4.7 -20.1 6.7 -7.5 11.4 -108.1 16.1 -168.3 7.9 -16.9 -2.4 -47.6 -9.4 -68 -16.1 -20.4 -6.7 -40.1 -13 -43.2 -13.8 -3.1 -1.2 0.4 2 7.9 6.7 7.5 4.7 18.9 14.2 24.8 20.8 10.6 11.8 11.4 14.2 9.8 40.9 -1.6 29.9 -9 44.4 -23.6 44.4 -3.9 0 -7.1 2 -7.1 3.9 0 2.4 -2.4 3.9 -5.5 3.9 -2.8 0 -9.4 3.9 -14.9 9 -31.1 28.7 -193.4 33.8 -254.8 7.9 -22 -9.4 -59.8 -29.1 -76.7 -40.5 l-15.7 -10.6 -11 8.3 c-9.4 7.1 -16.5 8.3 -45.2 8.3 -28.3 0 -37 -1.6 -51.1 -9.4 -9 -5.1 -17.3 -10.6 -18.5 -12.2 -3.1 -4.7 -21.6 0.4 -21.6 6.3 0 7.9 -29.9 15.3 -64.1 15.3 -16.5 0 -30.3 1.2 -30.3 3.1 0 1.6 -3.5 6.3 -7.9 10.6 -6.3 6.3 -13 7.9 -31.1 7.9 -20.8 0 -24.4 -1.2 -31.8 -10.6 -6.3 -7.9 -7.9 -14.2 -6.3 -22.8 3.1 -14.5 13.8 -29.9 25.6 -35.8 4.7 -2.4 16.5 -15.7 26.3 -29.9 18.5 -26.7 37 -42.1 72.3 -60.2 16.9 -8.6 28.7 -11.4 53.5 -13 27.5 -1.6 70.8 2.8 92 9 3.9 1.2 8.6 -3.1 13.8 -13 18.9 -35 68.8 -76.3 113.6 -93.2 14.2 -5.5 42.9 -11.8 63.3 -14.5 37.4 -4.3 43.2 -7.9 30.7 -17.3 -6.3 -4.7 -6.3 -5.1 -0.8 -5.5 4.7 0 5.9 -2.8 4.3 -9.8 -1.2 -6.7 0 -9.8 3.5 -9.8 3.1 0 9 -7.5 13.4 -16.5 16.5 -34.6 68.4 -79.4 103.8 -90 l14.2 -4.3 -1.2 -20.8 c-2 -25.9 2.8 -34.6 24.4 -47.2 26.3 -15.3 68 -22.8 113.2 -20.1 l38.1 2 2.4 -18.5 c6.3 -46.4 22 -75.5 60.5 -112.1 24.8 -23.2 31.1 -27.1 60.2 -35.8 136.8 -41.3 313 -46 466.3 -11.8 24.4 5.5 51.5 12.6 60.5 15.7 9 3.1 16.9 4.7 17.7 3.9 3.9 -3.5 -45.6 -38.5 -76.3 -54.3 -32.2 -16.1 -32.6 -16.5 -32.6 -31.1 0 -14.2 0.8 -15.3 14.9 -18.9 44.4 -12.2 117.6 -13.8 175.8 -3.5 101 16.9 198.2 103.8 220.2 196.2 11 47.2 6.3 148.2 -7.9 171 -5.1 7.9 -4.7 7.9 23.2 4.3 69.6 -8.6 160.4 4.7 231.6 34.6 5.1 2 6.7 0.8 6.7 -5.5 0 -10.6 9.4 -14.5 59 -24.8 31.1 -6.3 48 -7.5 100.3 -5.9 70 2 94 6.7 137.6 28.3 51.5 25.2 104.2 78.2 104.2 105 0 5.9 0.4 11 1.2 11 0.4 0 13.4 -2.8 28.3 -5.9 53.9 -11.4 119.9 -5.9 156.5 12.6 23.6 11.8 53.9 39.3 64.1 58.2 6.3 12.2 9 13.8 17.3 11.4 53.1 -14.2 121.9 -11.4 145.5 5.9 13.4 9.4 26.7 34.2 29.9 53.9 2.8 20.4 -6.3 57.4 -22.4 89.6 -17.7 35.8 -20.4 38.5 -43.2 42.1 -11.4 2 -21.6 5.1 -23.2 7.5 -4.3 6.7 -66.4 9.4 -96.3 4.3 -40.9 -7.1 -92.4 -39.3 -92.4 -57.4 0 -8.6 0 -8.6 -30.3 -3.1 -17.7 3.1 -43.2 4.7 -60.2 3.9 -21.6 -1.6 -26.7 -1.2 -19.7 2 12.6 4.7 38.9 5.5 70 1.2 l24.4 -3.1 0 16.1 c0 9 -2.4 17.3 -5.1 19.3 -3.1 1.6 -6.3 6.3 -7.9 10.2 -1.2 3.5 -6.3 6.7 -10.6 6.7 -4.3 0 -7.9 2.8 -7.9 5.9 0 3.1 -3.5 5.9 -7.9 5.9 -4.3 0 -7.9 2.8 -7.9 5.9 0 3.5 -3.5 5.9 -9.4 5.9 -11 0 -35 7.9 -38.1 12.6 -7.5 11 -109.3 14.9 -139.2 5.5z m-440.4 -124.2 c7.5 -2 -5.1 -3.1 -33.4 -3.1 -28.3 0 -40.9 1.2 -33.4 3.1 6.7 1.6 21.6 3.1 33.4 3.1 11.8 0 27.1 -1.6 33.4 -3.1z"/>
 </g>
 <g fill="#b5d7ff">
  <path d="M3139.5 1969.4 c-39.7 -7.9 -75.9 -20.4 -116.8 -40.9 -49.9 -25.2 -76.7 -41.7 -120.3 -75.1 -17.7 -13.8 -33.8 -25.2 -35.4 -25.2 -2 0 -7.5 4.7 -13 10.2 -16.1 17.3 -71.2 58.6 -97.9 73.5 -14.2 7.5 -39.7 18.9 -57 24.4 -28.3 9.8 -35.8 10.6 -73.1 9 -37.7 -1.6 -44.4 -3.1 -71.2 -15.7 -35.8 -16.9 -57.8 -36.2 -74.3 -64.5 l-11.8 -21.2 -17.7 11.8 c-59.4 41.3 -144.7 31.8 -193.4 -21.2 l-16.9 -18.5 -16.1 13.8 c-36.6 31.5 -111.3 53.5 -190.3 56.2 -61.3 2.4 -105.8 -2.4 -163.2 -16.5 -72.3 -18.1 -112.1 -38.1 -152.2 -77.5 l-23.2 -22.8 -20.8 26.7 c-26.3 33.4 -58.2 60.9 -86.1 74.7 -19.7 9.4 -26.3 10.6 -63.3 10.6 -37 0 -43.6 -1.2 -64.5 -11 -28.3 -13 -53.1 -33 -68 -53.9 l-11 -15.7 -33.8 0 c-41.3 0 -75.5 -9.8 -105 -29.5 -21.6 -14.9 -54.3 -52.7 -58.2 -67.6 -3.1 -11.4 -5.5 -11.4 -26.7 2.4 -24 14.9 -48.8 21.2 -74.7 19.3 -51.5 -4.3 -73.9 -54.3 -38.9 -86.1 l10.6 -9.4 -8.6 11.4 c-11 14.2 -11 25.9 -0.4 39.3 5.5 6.7 11.8 10.2 19.7 10.2 14.2 0 28.7 -13.4 25.9 -24.4 -2 -6.7 -0.8 -7.5 8.3 -5.5 5.9 1.6 13.8 3.1 17.3 3.9 3.9 0.4 8.3 2 9.4 3.5 4.7 4.3 21.2 3.1 21.2 -1.6 0 -2.4 3.5 -3.5 7.9 -2.4 4.3 1.2 7.9 0.4 7.9 -2 0 -2 3.1 -3.1 7.1 -2.8 12.6 1.2 16.5 -0.4 16.5 -5.9 0 -3.1 3.9 -6.3 9 -7.1 5.1 -0.8 8.6 -3.9 8.3 -7.9 -0.8 -11.4 12.6 -11 21.2 0.8 8.6 11.8 38.5 29.1 44 25.6 2 -1.2 4.3 -0.4 5.9 2 3.1 5.5 21.6 5.1 21.6 -0.4 0 -2.8 3.5 -3.5 9.4 -2 10.6 2.8 27.9 -9 31.8 -21.2 2.4 -7.5 3.9 -7.1 19.3 6.7 16.5 14.5 72.7 48 75.9 45.2 0.8 -0.8 5.9 1.6 11.4 4.7 5.1 3.5 9.4 5.5 9.4 3.9 0 -1.6 2.8 -0.4 5.9 2.4 3.5 2.8 7.1 3.9 8.6 2.8 1.2 -1.6 4.7 -0.8 7.5 1.6 3.1 2.4 7.9 3.5 11.4 2.4 3.1 -1.6 6.7 -0.8 7.9 1.6 1.6 2 8.3 3.9 14.9 3.9 7.1 0 27.9 1.2 47.2 2 24.8 1.6 34.2 0.8 34.2 -2.4 0 -3.5 4.3 -3.9 13.8 -2.4 9.4 2 13.8 1.2 13.8 -2 0 -2.8 3.5 -3.5 9.8 -2 6.3 1.6 9.8 0.8 9.8 -2 0 -2.4 3.5 -3.5 7.9 -2.4 4.3 1.2 7.9 0.4 7.9 -2 0 -2.4 3.5 -3.1 7.9 -2 5.5 1.2 11.8 -1.2 18.5 -7.5 5.5 -5.1 12.6 -9.4 15.3 -9.4 3.1 0 5.5 -1.6 5.5 -3.9 0 -2 3.1 -3.9 7.1 -3.9 9 0 22 -13.8 18.5 -19.3 -1.2 -2.4 -0.8 -4.3 1.2 -4.3 2 0 3.1 -7.1 2.8 -15.7 -1.2 -20.4 -12.6 -31.5 -61.7 -58.6 -35.8 -19.7 -62.1 -41.3 -86.9 -70 -9 -11 -9.4 -13 -3.5 -13 3.9 0 11.4 3.1 16.5 6.7 5.5 3.9 14.5 9.8 20.4 13 44.4 24.4 66.1 35.4 66.1 33 0 -1.2 5.9 1.6 13 5.9 7.5 4.3 17.7 9 22.8 9.8 5.1 1.2 9.8 2 10.6 2.8 0.4 0.4 2.8 1.2 4.7 1.6 2.4 0.4 4.7 1.6 5.9 2 1.2 0.4 3.9 1.6 5.9 2 2.4 0.4 4.7 1.6 5.9 2 1.2 0.4 3.9 1.6 5.9 2 2.4 0.4 4.7 1.6 5.9 2 1.2 0.4 3.1 1.2 5.1 1.6 1.6 0.4 5.1 2 7.9 3.9 2.8 1.6 6.3 2 7.5 0.8 1.2 -1.2 4.7 -0.4 7.5 2 3.1 2.4 7.9 3.5 11.4 2.4 3.1 -1.6 6.7 -0.8 7.9 1.6 1.6 2 8.3 3.9 14.9 3.9 7.1 0.4 34.2 1.2 60.9 2 35 1.6 48 0.8 48 -2.4 0 -3.1 3.5 -3.9 9.8 -2.4 6.3 1.6 9.8 0.8 9.8 -2 0 -2.4 3.5 -3.5 7.9 -2.4 4.3 1.2 7.9 0.8 7.9 -1.2 0 -3.5 16.9 -9 30.3 -10.2 13.8 -0.8 44.4 -20.8 48.8 -31.8 2 -5.5 7.1 -10.6 11.4 -11.8 4.3 -1.2 6.7 -3.5 5.5 -5.5 -1.2 -2 0.8 -3.5 3.9 -3.5 7.5 0 27.5 -33.4 24.4 -41.3 -1.2 -3.1 -0.4 -5.9 2 -5.9 2.4 0 3.5 -2.8 2 -5.9 -1.2 -3.1 -0.4 -5.9 1.6 -5.9 2.4 0 3.9 -8.6 3.9 -19.7 0 -11.4 -2 -19.7 -4.3 -19.7 -2 0 -2.8 -1.6 -1.6 -3.9 5.5 -8.6 -25.2 -29.9 -64.5 -44.4 -24.4 -9.4 -53.5 -24 -74.3 -38.1 -33.8 -22.8 -79 -64.5 -74.7 -68.8 1.2 -1.2 18.1 5.1 37 14.5 19.3 9 35.8 16.9 37 16.9 1.2 0 5.9 2.4 11 5.1 4.7 2.8 8.6 3.9 8.6 2.4 0 -1.2 2.8 -0.4 5.9 2.4 3.1 2.8 5.9 3.5 5.9 2 0 -1.6 2.8 -0.8 5.9 2 3.1 2.8 5.9 3.5 5.9 2 0 -1.6 2.8 -0.8 5.9 2 3.1 2.8 5.9 3.5 5.9 2 0 -1.6 2.8 -0.8 5.9 2 3.1 2.4 7.5 3.5 9.4 2.4 2 -1.6 5.1 -0.4 6.3 2 1.6 2 5.1 3.1 8.3 2 2.8 -1.2 6.3 0 7.9 2 1.2 2.4 5.9 3.5 9.8 2.4 3.9 -1.2 8.6 -0.4 9.8 2 1.6 2 7.5 2.8 13.8 1.6 5.9 -1.2 12.2 -0.4 13.4 1.6 3.5 5.5 88.5 5.1 88.5 0 0 -2.8 5.1 -3.1 13.8 -1.6 9.4 1.6 13.8 1.2 13.8 -2.4 0 -3.1 3.9 -3.5 11 -2 12.6 2.8 68 -8.3 72 -14.2 1.2 -2.4 6.7 -2.8 12.2 -1.6 6.7 1.6 12.2 0.4 16.5 -3.9 3.5 -3.5 9 -5.5 12.2 -4.3 3.1 1.2 5.9 0.8 5.9 -0.8 0 -4.3 42.5 -17.3 46.8 -14.5 2.4 1.2 5.5 -0.8 7.5 -4.7 2.4 -3.5 8.6 -7.1 14.2 -7.1 13.8 -0.8 41.7 -13.8 41.7 -19.7 0 -5.5 8.6 -9.8 20.1 -9.8 3.9 0 7.5 -2.8 7.5 -5.9 0 -3.1 2.8 -5.9 5.9 -5.9 3.1 0 5.9 -1.6 5.9 -3.9 0 -2 2.4 -3.9 5.5 -3.9 3.1 0 6.3 -2.8 7.9 -5.9 1.2 -3.1 5.9 -5.9 10.6 -5.9 4.7 0 9 -3.1 10.2 -7.9 1.2 -4.3 5.5 -7.9 9.4 -7.9 4.3 0 7.5 -2.8 7.5 -5.9 0 -3.1 2.8 -5.9 5.9 -5.9 3.1 0 5.9 3.1 5.9 7.1 -0.4 9.4 -26.7 44.4 -35.8 46.8 -3.9 1.2 -6.7 3.5 -5.5 5.1 2.8 4.3 -39.3 43.2 -66.8 61.7 -49.9 33.4 -112.1 58.6 -186 74.3 l-33 7.1 2.8 21.6 c12.6 100.3 79.8 189.9 182.8 243.4 14.2 7.5 25.6 13 25.6 12.6 0 0 6.7 2.4 14.9 5.9 8.3 3.5 16.5 5.1 18.5 3.9 2 -1.2 4.7 0 5.9 2.4 1.6 2 5.1 3.1 8.3 2 2.8 -1.2 6.3 0 7.9 2 1.2 2.4 5.9 3.5 9.8 2.4 3.9 -1.2 8.6 -0.4 9.8 2 1.6 2 7.5 3.1 13.4 1.6 5.9 -1.2 12.2 -0.8 13.8 0.8 4.3 4.3 84.5 3.9 84.5 -0.4 0 -2 5.9 -2.4 13.8 -1.2 9.4 2 13.8 1.2 13.8 -2 0 -2.8 3.5 -3.5 9.8 -2 6.3 1.6 9.8 0.8 9.8 -2 0 -2.4 3.5 -3.5 7.9 -2.4 4.3 1.2 7.9 0.4 7.9 -1.6 0 -2 2.8 -3.5 5.9 -3.5 3.1 0 5.9 1.6 5.9 3.5 0 3.9 40.5 31.8 48.4 33.4 2.8 0.8 7.9 2.4 11.4 3.9 3.5 1.6 8.3 2 10.6 0.8 2 -1.6 4.7 -0.8 6.3 1.6 3.1 5.5 45.2 5.1 45.2 -0.4 0 -2.8 4.3 -3.1 11.8 -1.6 6.7 1.6 11.8 0.8 11.8 -1.2 0 -4.7 30.3 -13.8 35.4 -10.6 2.4 1.6 5.1 -0.4 6.3 -3.9 1.6 -3.5 5.5 -5.9 9 -5.5 9.4 1.2 20.1 -4.3 20.1 -10.6 0 -3.1 2.8 -5.5 5.9 -5.5 3.1 0 5.9 -1.6 5.9 -3.9 0 -2 3.5 -3.9 7.9 -3.9 9.8 0 44.4 -31.1 41.7 -37.7 -0.8 -2.4 2 -5.5 6.3 -6.7 5.1 -1.6 7.5 -4.3 5.9 -8.3 -1.2 -3.1 -1.2 -6.7 0.4 -7.5 1.6 -0.8 0 -0.8 -3.1 0.4 -79 25.9 -151 20.4 -212.3 -16.9 -22.8 -13.8 -66.8 -53.9 -66.8 -60.9 0 -6.7 6.7 -4.3 18.9 5.9 6.7 5.5 13 9.8 14.9 9.8 1.6 0 5.9 2.8 9.4 5.9 3.9 3.5 10.2 6.7 14.9 7.9 4.3 0.8 13.8 4.7 21.2 8.3 7.1 3.9 14.2 7.5 16.1 7.9 1.6 0.4 3.5 1.2 4.7 1.6 1.2 0.4 3.1 1.2 5.1 1.6 1.6 0.4 5.1 2 7.9 3.9 2.8 1.6 6.3 2 7.5 0.8 1.2 -1.2 4.7 -0.4 7.5 2 3.1 2.4 7.9 3.5 11.4 2.4 3.1 -1.6 6.7 -0.8 7.9 1.2 3.5 5.5 76.7 5.1 76.7 -0.4 0 -2.8 4.3 -3.5 11.8 -2 7.5 1.2 11.8 0.4 11.8 -2 0 -2.8 3.5 -3.5 8.3 -2.4 10.6 2.8 38.5 -7.1 47.6 -16.9 3.9 -4.3 12.2 -8.6 18.1 -9.8 16.5 -3.5 36.2 -14.5 36.2 -20.4 0 -2.8 4.3 -5.1 9.8 -5.1 9.8 0 9.8 0.4 3.5 9.8 -3.5 5.5 -15.7 17.7 -26.7 27.1 l-20.1 17.3 29.9 29.1 c20.8 20.8 38.1 33.4 59.4 44 16.5 8.3 31.8 13.8 34.2 12.6 2 -1.6 5.1 -0.4 6.7 2 1.2 2.4 7.5 3.5 13.8 2 5.9 -1.2 12.2 -0.4 13.4 1.6 3.1 5.5 21.6 5.1 21.6 -0.4 0 -2.8 4.7 -3.5 13.4 -2 8.6 1.6 14.2 0.8 14.9 -2 0.8 -2.4 7.5 -4.7 14.9 -5.5 7.5 -0.4 14.2 -2.8 14.9 -5.5 3.1 -9.4 18.5 -3.5 39.7 16.5 33.8 31.1 68.4 46.8 106.6 49.1 36.6 2 72.7 -2 79.8 -8.6 7.1 -7.1 41.3 -18.9 46 -16.1 2 1.2 3.9 -0.4 3.9 -3.5 0 -3.5 3.5 -6.3 7.9 -6.3 4.3 0 7.9 -2.4 7.9 -5.5 0 -3.1 3.9 -6.3 9 -7.1 4.7 -0.8 8.6 -3.9 8.6 -7.1 0 -3.1 3.1 -7.1 7.1 -8.6 9 -3.9 9 -12.6 0 -9 -29.9 11 -86.5 3.9 -123.1 -16.1 -18.5 -10.2 -62.9 -51.1 -62.9 -58.2 0 -2.8 31.5 13 40.1 20.1 3.5 3.1 8.6 6.3 11.8 6.7 2.8 0.4 9 3.1 14.2 5.5 4.7 2.8 10.6 3.9 12.6 2.8 2 -1.2 4.7 0 5.9 2.4 1.6 2 5.1 3.1 8.3 2 2.8 -1.2 6.3 -0.4 7.5 1.6 1.2 2 7.1 3.5 13 3.5 5.9 0 18.1 1.2 27.5 2.8 11.8 1.6 16.5 1.2 16.5 -2.4 0 -3.5 3.9 -4.3 11.8 -2.4 6.7 1.2 11.8 0.8 11.8 -1.2 0 -2 7.1 -3.1 16.1 -2.8 11.4 0 17.7 -2 21.2 -6.7 2.8 -3.9 7.5 -6.7 10.6 -5.9 8.3 1.6 30.7 -9 30.7 -14.9 0 -3.1 3.9 -5.5 9.8 -5.5 5.5 0 9.8 1.6 9.8 3.5 0 2 -10.6 13.4 -23.6 25.2 l-23.6 21.2 9 7.9 c13 12.6 57.4 37.4 61.3 34.6 2 -1.2 4.7 -0.4 6.3 2 1.2 2 6.3 3.9 11 3.9 4.7 0 18.9 1.2 31.5 2.4 15.7 1.6 22.4 0.8 22.4 -2.4 0 -3.1 3.9 -3.5 11.8 -2 6.7 1.6 11.8 0.8 11.8 -1.2 0 -3.5 28.3 -13.4 34.2 -11.8 6.3 1.6 20.8 -5.5 20.8 -10.6 0 -2.8 4.3 -5.9 9.8 -6.7 l9.8 -2 -8.6 15.3 c-13 22.8 -50.7 57 -76.7 69.2 -20.1 9.4 -27.5 10.6 -62.1 10.6 -41.3 0 -61.3 -6.3 -83 -26.3 l-8.6 -7.5 -4.7 20.8 c-6.3 25.9 -13 39.7 -30.7 61.3 -29.5 37 -79.4 58.6 -126.2 54.7 l-25.9 -2 -14.9 19.3 c-28.7 37.4 -85.7 73.5 -138.4 88.1 -28.3 7.9 -124.2 11.4 -153.3 5.5z"/>
 </g>
 <g fill="#ffffff">
  <path d="M1124.5 1558.6 c0 -3.5 39.3 -20.8 60.5 -27.1 23.2 -6.7 78.2 -6.7 99.9 0 7.9 2.8 8.6 1.6 8.6 -10.2 0 -19.3 20.4 -59.4 39.3 -77.8 20.1 -19.3 57.4 -37.4 88.5 -43.2 12.6 -2.4 41.3 -4.3 63.7 -4.3 40.5 0 40.5 0 38.5 -9 -4.3 -16.1 5.1 -57.4 20.1 -88.5 11.4 -24 21.6 -37.4 48.4 -63.7 39.3 -38.9 82.2 -64.5 153.7 -91.2 l45.6 -16.9 -3.5 -17.7 c-5.5 -30.7 -0.8 -120.7 8.6 -151 34.2 -114.8 119.1 -202.9 221.4 -230 93.2 -24.8 177.3 -5.9 296.5 66.4 l26.7 16.1 55.4 -18.1 c103 -33.8 163.6 -37.4 251.6 -15.7 119.9 29.9 203.3 140.4 224.1 298 l2.4 18.5 16.5 -2.4 c9 -1.2 18.5 -2.8 21.2 -3.5 10.6 -3.1 54.7 6.3 77.1 16.9 31.5 14.5 57.8 40.9 74.3 74.3 12.2 25.2 13 29.1 13 68 l0 41.3 27.5 -14.5 c40.1 -20.8 78.6 -30.7 131.7 -33.4 119.5 -5.5 233.2 49.9 293.7 143.9 0.4 0.8 8.3 -4.7 17.7 -12.6 60.2 -48.8 127 -42.9 163.2 14.2 13.4 21.2 16.9 62.1 7.5 81 l-6.7 12.6 17.3 -2.4 c26.7 -3.9 88.1 4.7 112.8 16.1 24.4 11 37.4 22 46 38.1 8.3 16.5 3.5 17.3 -13 2.8 -19.3 -16.5 -34.2 -22.8 -64.9 -25.9 -29.5 -2.8 -65.7 3.1 -86.9 14.2 -8.3 4.3 -15.7 7.9 -16.9 7.9 -0.8 0 -3.5 -6.3 -5.9 -13.8 -6.7 -20.1 -39.3 -53.9 -65.7 -68 -56.2 -29.9 -152.9 -24.4 -199.3 11 -8.6 6.3 -16.5 11 -17.3 9.8 -1.2 -1.2 4.7 -11.8 13 -23.6 14.2 -20.4 14.5 -22.4 9.4 -34.2 -2.8 -7.1 -15.7 -23.2 -29.1 -36.2 -61.3 -60.5 -126.6 -83.7 -224.1 -79.8 -49.1 2 -108.1 13 -117.6 22.4 -2 2 2.8 10.6 13 22 21.6 24.8 22 32.6 0.4 17.3 -20.8 -14.9 -76.7 -39.3 -108.1 -47.2 -80.6 -20.4 -156.1 -18.9 -235.1 5.5 -26.7 7.9 -22.4 0.8 13.4 -23.6 35.8 -24 39.3 -32.2 41.7 -95.9 1.6 -33.4 0.4 -52.3 -4.3 -72.3 -17.7 -74.3 -82.6 -147.4 -159.6 -179.3 -37.7 -15.7 -51.1 -18.9 -92.8 -23.2 -48.4 -5.1 -135.3 4.7 -135.3 14.9 0 1.6 13 9.4 29.1 17.3 49.9 25.2 94.8 63.3 112.4 96.7 4.3 8.6 4.3 9 -2.4 6.3 -98.3 -42.1 -189.9 -60.5 -314.9 -63.7 -100.3 -2.8 -175 6.7 -259.9 32.6 -29.5 9 -35.4 12.2 -61.7 37.7 -35.8 33.8 -51.9 63.3 -57.8 107.3 -3.9 27.9 -5.1 29.9 -12.6 27.5 -29.5 -8.6 -58.6 -10.6 -85.7 -6.3 -68 11.4 -101 43.6 -69.2 68.8 9.4 7.1 11 10.2 7.1 11.8 -3.1 0.8 -14.9 4.7 -26.3 8.3 -57.4 18.1 -109.7 72.3 -121.1 125.4 -3.1 14.9 -6.7 23.6 -9.8 22.8 -11 -2.4 -70 8.3 -93.2 16.9 -44.8 16.9 -90.8 54.7 -111.7 91.2 -10.2 17.7 -13.8 21.2 -20.8 19.7 -71.2 -16.9 -109.3 -17.7 -155.7 -3.1 -13 3.9 -23.6 6.7 -23.6 5.9z"/>
 </g>
</svg>