<svg class="animated" xmlns="http://www.w3.org/2000/svg" viewBox="40 0 350 500" version="1.1" xmlns:xlink="http://www.w3.org/1999/xlink" xmlns:svgjs="http://svgjs.com/svgjs"><style>svg#freepik_stories-wind-turbine:not(.animated) .animable {opacity: 0;}svg#freepik_stories-wind-turbine.animated #freepik--wind-turbine-1--inject-16 {animation: 1s 1 forwards cubic-bezier(.36,-0.01,.5,1.38) slideUp,1.5s Infinite  linear floating;animation-delay: 0s,1s;}            @keyframes slideUp {                0% {                    opacity: 0;                    transform: translateY(30px);                }                100% {                    opacity: 1;                    transform: inherit;                }            }                    @keyframes floating {                0% {                    opacity: 1;                    transform: translateY(0px);                }                50% {                    transform: translateY(-10px);                }                100% {                    opacity: 1;                    transform: translateY(0px);                }            }        .animator-hidden { display: none; }</style><g id="freepik--Shadow--inject-16" class="animable animator-hidden" style="transform-origin: 250px 457.39px;"><ellipse cx="250" cy="457.39" rx="133.72" ry="15.53" style="fill: rgb(236, 239, 241); transform-origin: 250px 457.39px;" id="eleeogs9lgvzh" class="animable"></ellipse><g id="ellyk4jlitns"><ellipse cx="250" cy="457.39" rx="133.72" ry="15.53" style="fill: rgb(255, 255, 255); opacity: 0.5; transform-origin: 250px 457.39px;" class="animable"></ellipse></g></g><g id="freepik--wind-turbine-2--inject-16" class="animable animator-hidden" style="transform-origin: 307.18px 304.277px;"><path d="M367.84,315.15l-.06-.07-.23-.31c-.15-.19-.28-.37-.42-.53h0l-4.43-4.49-.1-.09L347.7,294.57a1,1,0,0,1-.14-.16c-.76-.9-6.34-7.52-8.73-11.23a.75.75,0,0,1-.07-.12,10.93,10.93,0,0,1-.6-1,10.71,10.71,0,0,0-1.24-1.77.53.53,0,0,1-.1-.12,41.73,41.73,0,0,0-10.55-8.3l-.19-.09a24.33,24.33,0,0,0-2.44-1.17l-.17-.07a4.2,4.2,0,0,0,2.18-4.16,2.17,2.17,0,0,0,0-.25.57.57,0,0,0,0-.18l0-.15c-.63-2.51-3.8-5.91-6.63-7.86l-.71-.47a7.3,7.3,0,0,0-.63-.37l-.27-.15h0l-.78-7.54h-1.37l-.4-4.64s0-1.83.1-4.75c0-.16,0-.31,0-.47.18-7,.59-19.63,1.34-28.65v0c1.07-13.14,2.64-27.74,3.23-35.75,0-.09,0-.17,0-.25a.66.66,0,0,1,0-.14c0-.46.07-.91.1-1.36s.07-.8.1-1.19c.51-5.74,1.13-11,.23-13.32a2,2,0,0,0-.75-1c-1.82-1.14-4.67,6.17-6.82,13.32h0c-.41,1.4-.8,2.8-1.15,4.12-.05.18-.1.35-.16.54-1.55,5.9-5.29,20.45-7.37,32a67.13,67.13,0,0,0-1.43,12.93,0,0,0,0,0,0,.05c.45,9.24,1.09,10,3.35,17A58.15,58.15,0,0,1,308.21,249v0l-1.08.2-.86.16-.7,4.39a10.54,10.54,0,0,0-4.55.92,5.73,5.73,0,0,0-2.06,1.56h0l-1-.22h0a45.81,45.81,0,0,0-7.27-.77,48.48,48.48,0,0,0-8.19.51h-.09c-8.21,1.26-15.39,3.91-18,5.49a2.26,2.26,0,0,0-.26.16h0a1.48,1.48,0,0,0-.27.19.42.42,0,0,0-.13.11l-.09.07a.52.52,0,0,0-.11.1l-.1.11c-.83,1-1.51,3.31-1.76,5.7v0a14.11,14.11,0,0,0,.16,4.35,3.66,3.66,0,0,0,.2.68.16.16,0,0,1,0,0l9.85.58,4.51.27,6.08.35h0l-.9,20.37s-2.5,1.83-5.5,4.41a59.11,59.11,0,0,0-6.63,6.61c-.18.2-.33.41-.5.63l-.62.83a1.19,1.19,0,0,0-.16.23,139.19,139.19,0,0,0-7.42,12.59c-2.47,4.56-4.61,8.65-5.51,9.91a0,0,0,0,0,0,0c-1.06,1.49-3,5.33-5,8.84-1.59,2.85-3.2,5.5-4.36,6.49l0,0c-2.57,2.2-4.15,4.57-2.84,5.18s3.44.25,7.36-3a.41.41,0,0,0,.13-.1c3.88-3.2,13.78-16.36,14.39-17.17s1.42-1.75,2.15-2.62c.29-.36.59-.74.9-1.1,1.77-2.13,4-4.86,6-7.24.49-.62,1-1.23,1.52-1.85q.44-.54.9-1.08c.65-.8,1.31-1.59,2-2.38,2-2.33,2.48-2,2.48-2l-.15,3.65-.11,2.35h0l-3.66,132.75c3.27-.65,6.53.83,9.77,0,3.08-.79,9.13.95,12.17,0h.07l-4.91-155.16v-.24l.14-.14,2.17-2.4,11.2-12.32a.36.36,0,0,1,.11-.1,4,4,0,0,0,.51.31,2,2,0,0,0,1.95.1c1-.68,3.22-5.44,3.22-5.44l2.89-.74.07,0h0l1.41-.36,1.21,1.13L326.3,282l.31.29,40.77,37.89.06.05c.25.29,2.57,2.8,4.07,2.06C372.74,321.7,369.39,317.13,367.84,315.15ZM295.47,283l-.64.73-.08.09-.8.9-.05,0v-9.72h.93l5.36,0,.29,1.19,0,.17-.59.88A71.78,71.78,0,0,1,295.47,283Z" style="fill: rgb(255, 255, 255); transform-origin: 307.178px 304.137px;" id="elo7y5tipxot" class="animable"></path><path d="M320.18,272.7l-1.34,2.4L317.63,274l-1.45.37-.07,0-2.89.74s-2.17,4.76-3.22,5.44a2,2,0,0,1-1.95-.1l.67-1.78a6.62,6.62,0,0,0-6.76-4.39l-.46,2.87s-2-3.35-1.95-3.82-2.83-3.54-3.28-8.05,1.77-13.33,13.31-10.94c0,0-3.73.36-5.24,6.52S312,271.38,320.18,272.7Z" style="fill: rgb(236, 239, 241); transform-origin: 308.198px 267.347px;" id="eleyvorm7z59f" class="animable"></path><polygon points="280.34 317.89 291.32 306.45 290.27 299.38 281.03 310.78 280.34 317.89" style="fill: rgb(236, 239, 241); transform-origin: 285.83px 308.635px;" id="ellocrje39gq9" class="animable"></polygon><path d="M288.18,265.89v-1.48l6.29,6.21-.51,4.11v10.35c-1.64,1.64-4.42,3.88-5.72,4.9C288.38,275.83,288.38,266.36,288.18,265.89Z" style="fill: rgb(236, 239, 241); transform-origin: 291.325px 277.195px;" id="elm4tuu02w4za" class="animable"></path><path d="M298.83,450.49h-.07c-3,.95-9.09-.79-12.17,0,.33-18.91.77-95.81,1.12-119.42.1-6.8.19-13.46.28-19.74,0-.49,0-1,0-1.44,0-2.69.07-5.31.1-7.84V302l.79-.9,1.39-1.59,3.63-4.16h0Z" style="fill: rgb(236, 239, 241); transform-origin: 292.71px 373.066px;" id="el7urjypljcdh" class="animable"></path><path d="M371.51,322.32c-1.59.79-4.09-2.08-4.09-2.08L317.63,274l-1.45.37a23.8,23.8,0,0,0,7.46-3.72c5.36,2.16,12.66,8,14.52,11.45s9.49,12.44,9.49,12.44l19.48,19.72S373.09,321.53,371.51,322.32Z" style="fill: rgb(236, 239, 241); transform-origin: 343.978px 296.554px;" id="elgbppnhox3yg" class="animable"></path><path d="M296.56,261.71s-29.36-1.73-32.5-.27-3.05,8.8-2.1,11.41l37.55,2.21,0-1.74.09-.47S295.76,270.14,296.56,261.71Z" style="fill: rgb(236, 239, 241); transform-origin: 280.489px 267.957px;" id="elubvec42plm" class="animable"></path><path d="M305.58,274.73s-5.42,11.73-12.57,16.8-21.15,14.73-33.2,29.21c0,0,6.25-13.77,13.15-19.49s16.2-11.21,19-14.16,10-12.82,10-12.82Z" style="fill: rgb(236, 239, 241); transform-origin: 282.695px 297.505px;" id="elw88qm4y4pe" class="animable"></path><path d="M312.28,171.48c-4.21,21.19-5.36,50.73-2.65,61.12s1.81,16.81,1.81,16.81h-4.3v-.16l1.07-.2a56.69,56.69,0,0,0-2.63-11.26c-2.27-7-2.9-7.78-3.36-17s6.8-37.35,8.94-45.42c.36-1.34.76-2.76,1.18-4.18Z" style="fill: rgb(236, 239, 241); transform-origin: 307.27px 210.3px;" id="el7f96uxzjp88" class="animable"></path><path d="M305.58,253.79c-3.45.13-6.11.93-7.75,4.21-2.42,4.82-2.17,11.25,1.8,14.85" style="fill: none; stroke: rgb(38, 50, 56); stroke-linecap: round; stroke-linejoin: round; transform-origin: 300.926px 263.32px;" id="el2eeyv7ucxao" class="animable"></path><path d="M313.22,275.1c6.45-1.28,12.19-4.83,12.42-8.09s-3.59-7.5-8.83-10.33" style="fill: none; stroke: rgb(38, 50, 56); stroke-linecap: round; stroke-linejoin: round; transform-origin: 319.435px 265.89px;" id="elakmhnn1e5in" class="animable"></path><path d="M317.31,257l-.79-7.55H306.26l-.68,4.38a22.67,22.67,0,0,1,5.86,1" style="fill: none; stroke: rgb(38, 50, 56); stroke-linecap: round; stroke-linejoin: round; transform-origin: 311.445px 253.225px;" id="el91q8854au6w" class="animable"></path><path d="M308.17,249.41s.9-5-4-14.54,0-32.11,4-48.35,7.5-28,10.92-28.69-2.88,41.32-3.24,59.54-1.65,22.79-1,32" style="fill: none; stroke: rgb(38, 50, 56); stroke-linecap: round; stroke-linejoin: round; transform-origin: 311.11px 203.616px;" id="elsh54l6n1heh" class="animable"></path><path d="M308.73,278.66s-2.66-5.79-6.77-4.39c-3.48,5.37-7.61,11.49-12.88,15.21-5.55,3.91-11.37,6.76-16.12,11.77a79.71,79.71,0,0,0-11.57,16.55c-5.58,10.12-10.19,20.93-17.61,29.79-.63.75-1.31,1.77-.81,2.61s2,.64,3,.11c6.09-3.24,9.81-9.33,14.07-14.51,3.38-4.11,6.74-8.23,10.12-12.33,7.77-9.41,15.57-18.79,23.5-28.06,3-3.51,6-7,9.1-10.43C303.21,284.47,308.87,279,308.73,278.66Z" style="fill: none; stroke: rgb(38, 50, 56); stroke-linecap: round; stroke-linejoin: round; transform-origin: 275.765px 312.41px;" id="el6opmdudy5ze" class="animable"></path><path d="M300.75,276.12a9.73,9.73,0,0,1-1.21-2.8c0-.89,2-3.74,2-3.74" style="fill: none; stroke: rgb(38, 50, 56); stroke-linecap: round; stroke-linejoin: round; transform-origin: 300.54px 272.85px;" id="elp9jjrsyhz2t" class="animable"></path><path d="M307.53,280.12s2,.92,2.73,0,3.26-5.59,3.26-5.59-3.4-4.39-6-4.95" style="fill: none; stroke: rgb(38, 50, 56); stroke-linecap: round; stroke-linejoin: round; transform-origin: 310.52px 275.054px;" id="eldnesb1nnesa" class="animable"></path><path d="M317.85,273.88c10,9.6,50.08,48.44,52.64,48.44,2.94,0-1.21-5.34-3.36-8.08s-22.7-21-28.38-31.18c-3.61-6.5-11-10.69-15.28-12.51" style="fill: none; stroke: rgb(38, 50, 56); stroke-linecap: round; stroke-linejoin: round; transform-origin: 344.679px 296.435px;" id="el4val7x4vlx" class="animable"></path><path d="M300.19,275.1l-8.57-.5-4.56-.28-10.74-.62-4.5-.27-9.86-.58s-1.68-9,2.1-11.41c2.56-1.62,10.31-3.87,16.23-5.2a43.84,43.84,0,0,1,6.5-1.11,36.14,36.14,0,0,1,4,.18c1.9.16,3.94.41,5.58.62.76.1,2.06.12,2.58.2" style="fill: none; stroke: rgb(38, 50, 56); stroke-linecap: round; stroke-linejoin: round; transform-origin: 280.889px 265.114px;" id="el2h1vmu1huqy" class="animable"></path><line x1="281.5" y1="294.43" x2="282.4" y2="274.05" style="fill: none; stroke: rgb(38, 50, 56); stroke-linecap: round; stroke-linejoin: round; transform-origin: 281.95px 284.24px;" id="elk26ikwfcsg8" class="animable"></line><polyline points="298.76 450.49 276.82 450.49 280.48 317.74 280.48 317.73 280.59 315.38 280.6 315.28 280.79 310.7" style="fill: none; stroke: rgb(38, 50, 56); stroke-linecap: round; stroke-linejoin: round; transform-origin: 287.79px 380.595px;" id="eli9596ybuvbm" class="animable"></polyline><path d="M298.76,450.49c-.39-18.69-3.9-97.66-4.29-120-.13-7-.24-13.82-.34-20.07-.08-5.48-.16-10.56-.21-15v-.23h0" style="fill: none; stroke: rgb(38, 50, 56); stroke-linecap: round; stroke-linejoin: round; transform-origin: 296.34px 372.84px;" id="el84yb9dtd2hf" class="animable"></path><path d="M294,274.73c-.15,0-.13,3.66-.08,10.46" style="fill: none; stroke: rgb(38, 50, 56); stroke-linecap: round; stroke-linejoin: round; transform-origin: 293.942px 279.96px;" id="elcflv97n0y48" class="animable"></path><path d="M290.8,255.31c-2.49.79-12.14,4-13.18,5.73-1.45,2.45-1.39,9.64-1.3,12.66l-4.5-.27c-.09-3.68-.05-10.68,1.43-13.15,1.21-1.44,4.15-2.89,7-4a43.84,43.84,0,0,1,6.5-1.11A36.14,36.14,0,0,1,290.8,255.31Z" style="fill: rgb(38, 50, 56); transform-origin: 281.296px 264.431px;" id="ele0xbv6cak86" class="animable"></path><path d="M299,256.29s-5.8,2.65-6.85,5.47c-.88,2.35-.61,10.24-.49,12.84l-4.56-.28c0-3.28.1-11.07.56-13.1.58-2.58,8.76-5.29,8.76-5.29l1.95.27Z" style="fill: rgb(38, 50, 56); transform-origin: 293.05px 265.265px;" id="el04f2pduz41st" class="animable"></path><path d="M294.13,310.37a49.81,49.81,0,0,1-8.06,1.09v19.47a23.27,23.27,0,0,0,8.4-.48" style="fill: none; stroke: rgb(38, 50, 56); stroke-linecap: round; stroke-linejoin: round; transform-origin: 290.27px 320.74px;" id="elc1xqxw8csj4" class="animable"></path><path d="M282.4,274.05A19,19,0,0,0,294,280.23l-.06-5.72Z" style="fill: rgb(38, 50, 56); transform-origin: 288.2px 277.14px;" id="el9dxzsuf6lln" class="animable"></path><g id="elgalw51yw705"><path d="M293.92,295.33l-3.63,4.16h0l0-.11-1.36,1.69h0l-.79.9v.07L281,310.78l-.69,7.11,7.67-8c0,.48,0,1,0,1.43-.09,6.28-.18,12.94-.28,19.74-.35,23.61-.79,100.51-1.12,119.42,3.08-.79,9.13.95,12.17,0h.07l-4.9-155.17Z" style="opacity: 0.1; transform-origin: 289.565px 373.041px;" class="animable"></path></g><g id="els5t6idn30z8"><path d="M367.13,314.23l-19.48-19.72s-7.61-8.95-9.49-12.44-9.16-9.29-14.52-11.45a22.8,22.8,0,0,1-3.49,2.15l0-.07c-8.23-1.32-17.35-5.68-15.84-11.85s5.24-6.52,5.24-6.52c-8.91-1.85-12.26,3-13.12,7.37-1.82-.1-29.36-1.67-32.4-.26s-3.05,8.8-2.1,11.41l26.38,1.55c0,4.05,0,9.36-.1,15.58,1.05-.82,3.07-2.45,4.67-3.91-.34.39-.65.74-.92,1-2.83,3-12.12,8.44-19,14.16s-13.15,19.49-13.15,19.49c12.05-14.48,26.05-24.14,33.2-29.21,6.6-4.68,11.71-15,12.47-16.59a7,7,0,0,1,3.24,3.72l-.67,1.78a2,2,0,0,0,1.95.1c1.05-.68,3.22-5.44,3.22-5.44l2.89-.74.07,0,1.45-.37,49.79,46.27s2.5,2.87,4.09,2.08S367.13,314.23,367.13,314.23Zm-68.22-42.09a9.53,9.53,0,0,1-1.81-3.49A19.64,19.64,0,0,0,298.91,272.14Zm-5,12.68V274.73l5.55.33,0-1.74h0a9.63,9.63,0,0,0,1.22,2.58C299.16,278.09,296.22,282.05,294,284.82Zm8-10.55h0a7,7,0,0,1,2.78.35Z" style="opacity: 0.1; transform-origin: 315.795px 288.192px;" class="animable"></path></g><g id="el7537ausi1l5"><path d="M305.58,237.79a56.69,56.69,0,0,1,2.63,11.26l-1.07.2v.16h4.3s.9-6.42-1.81-16.81-1.56-39.93,2.65-61.12l.06-.32c-.42,1.42-.82,2.84-1.18,4.18-2.14,8.07-9.41,36.19-8.94,45.42S303.31,230.8,305.58,237.79Z" style="opacity: 0.1; transform-origin: 307.269px 210.285px;" class="animable"></path></g></g><g id="freepik--wind-turbine-1--inject-16" class="animable animator-active" style="transform-origin: 239.999px 237.243px;"><polygon points="215.97 234.34 219.68 229.97 215.96 234.05 215.97 234.34" style="fill: none; transform-origin: 217.82px 232.155px;" id="el0xf4g4nvai2h" class="animable"></polygon><path d="M318.75,233l-13.34-10.88s-19.84-20-23-25.78-8.08-10.33-17-13.91l-.28-.12a7,7,0,0,0,3.62-6.91c-.44-5-8.39-12.92-13.89-15.68l-1.31-12.54h-2.26l-.68-7.71s.62-34.51,2.43-56.33,3.41-32.79,4.39-46.09,2.75-10.68-.87-12.94c-3-1.87-10.87,19.83-11.46,22-3.57,13.42-13.25,40.21-13.25,55.57,0,13.12-1.95,18.11,3.49,26.15,6.83,10.1,4.37,18.71,4.37,18.71l-1.78.33-1.45.26-.66,4.14-.48,3.15s-7.39-.33-11,4.15a75.51,75.51,0,0,0-27.57-.84c-15.47,2.33-28.78,7.68-31.38,10s-4.58,12.9-2.66,18.32l34,2v.17l19.15,1.58v-.07h1.55l8.93.05.21.89,1,.08-1-.08,2,2.12c-2.38,3.71-6.78,7.76-9.21,10.57a9.61,9.61,0,0,1-3.45,2.51v-.17c-3.07,3.17-8.25,8.26-12.36,10.89-3.18,2-7.14,4.7-10.28,6.83-4,3.1-10.32,10.18-16,20-5.94,10.28-16.7,27.81-22.42,34.92-2.6,7.37,11.46-2.58,11.46-2.58s20.06-23.37,23.91-28c1.68-2,24.21-26.86,24.21-26.86l11.33-12.25,11.55-11.57a26.51,26.51,0,0,0,2.16,1.57,3.35,3.35,0,0,0,3.26.15c1.73-1.12,5.35-9,5.35-9l4.82-1.23.11,0,3.13-.81,1.5,1.73,65.28,53.55,2.5.11-1.07-3.24Z" style="fill: rgb(255, 255, 255); transform-origin: 239.975px 152.527px;" id="elbuots25vesd" class="animable"></path><polygon points="204.44 232.38 202.41 278.66 199.25 350.63 195.93 426.05 230.26 426.05 225.77 208.75 204.44 232.38" style="fill: rgb(255, 255, 255); transform-origin: 213.095px 317.4px;" id="el53blnrp0tmy" class="animable"></polygon><path d="M215.92,216.91s1.06-1.16,2.61-2.94c0,0-1,1.13-2.61,2.77Z" style="fill: none; transform-origin: 217.225px 215.44px;" id="eltur94pzykmn" class="animable"></path><path d="M218.53,214A109.43,109.43,0,0,0,227,203.09l-.34-1.38-.21-.89-8.93,0h-1.55v16C217.5,215.1,218.53,214,218.53,214Z" style="fill: none; transform-origin: 221.485px 208.82px;" id="el8ybv4ccohco" class="animable"></path><path d="M225.76,206.38V190.47l-19.15-1.58-1.49,33.7s-.75.55-2,1.51c3.14-2.13,7.11-4.79,10.28-6.82C217.51,214.65,222.7,209.55,225.76,206.38Z" style="fill: rgb(255, 255, 255); transform-origin: 214.44px 206.495px;" id="elt3xjmcdev2i" class="animable"></path><polygon points="226.4 200.82 217.47 200.77 215.92 200.76 215.92 200.83 226.61 201.71 226.4 200.82" style="fill: none; transform-origin: 221.265px 201.235px;" id="el3t4d7te5tyg" class="animable"></polygon><path d="M218.53,214A109.43,109.43,0,0,0,227,203.09l-.34-1.38-10.69-.88v16.08S217,215.75,218.53,214Z" style="fill: none; transform-origin: 221.485px 208.87px;" id="elt59t678kirq" class="animable"></path><path d="M259.69,185.89l-2.18,1.25-2.08.85-2.41.61-.11,0-4.82,1.23s-3.62,7.91-5.35,9c-1.09.7-4.77-.53-5.61-1l3.19-3.92s-.89-6-8.8-5.28l-2.94,4.51s-3.41-5.56-3.26-6.34-4.7-5.89-5.45-13.39,2.95-22.15,22.16-18.17c0,0-6.21.6-8.73,10.84S246,183.68,259.69,185.89Z" style="fill: rgb(236, 239, 241); transform-origin: 239.735px 176.804px;" id="elsngzk1fugc" class="animable"></path><polygon points="203.56 244.62 221.84 225.62 220.24 214.88 204.71 232.81 203.56 244.62" style="fill: rgb(236, 239, 241); transform-origin: 212.7px 229.75px;" id="elalbvgnx15ec" class="animable"></polygon><path d="M216.6,174.56v-2.45l10.48,10.32-.85,6.83v17.19a122.81,122.81,0,0,1-9.52,8.15C216.94,191.08,217,175.34,216.6,174.56Z" style="fill: rgb(236, 239, 241); transform-origin: 221.84px 193.355px;" id="el6lbj17oxdf" class="animable"></path><path d="M230.26,450.49H213.18c.43-23.55,4.15-162.91,5-233.58l7.52-7.21Z" style="fill: rgb(236, 239, 241); transform-origin: 221.72px 330.095px;" id="elyzkxhlnlbkg" class="animable"></path><path d="M324.75,243.5c-2.64,1.31-68.25-55.95-68.25-55.95l-1.34-.67A24.13,24.13,0,0,0,265.72,182c8.92,3.58,15.62,11.54,18.72,17.26s20.49,20.5,20.49,20.5l16.4,16.11S327.38,242.18,324.75,243.5Z" style="fill: rgb(236, 239, 241); transform-origin: 290.286px 212.761px;" id="elfff1m78joa" class="animable"></path><path d="M220.35,167.62s-48.88-2.88-54.11-.45-5.09,14.63-3.5,19l62.53,3.66,0-2.89.15-.78S219,181.63,220.35,167.62Z" style="fill: rgb(236, 239, 241); transform-origin: 193.595px 178.013px;" id="eloefm2qi3s1e" class="animable"></path><path d="M235.37,189.26s-7.43,22.4-20.93,27.91c-24.66,10.08-34.8,31.31-54.88,55.38,0,0,14.29-23.68,22.25-36.29,11.77-18.67,24.39-24,30.24-27.51a55.72,55.72,0,0,0,19.47-20Z" style="fill: rgb(236, 239, 241); transform-origin: 197.465px 230.65px;" id="elbkl0nabpvnk" class="animable"></path><path d="M242.11,119.26c5,17.12,3,27.92,3,27.92H238v-.26l1.78-.33s2.13-4.75-3.41-15.62c-2.65-5.2-3.57-3.72-4.67-19s12.4-69.32,21-84.26C253.75,25.69,232.81,87.41,242.11,119.26Z" style="fill: rgb(236, 239, 241); transform-origin: 242.188px 87.4208px;" id="elcv24e8234m" class="animable"></path><path d="M235.37,154.47c-5.75.21-10.17,1.55-12.91,7-4,8-3.61,18.68,3,24.66" style="fill: none; stroke: rgb(38, 50, 56); stroke-linecap: round; stroke-linejoin: round; stroke-width: 1.02127px; transform-origin: 227.624px 170.3px;" id="elq4mrabxtr6" class="animable"></path><path d="M248.09,189.87c10.74-2.12,20.29-8,20.68-13.44s-6-12.46-14.7-17.16" style="fill: none; stroke: rgb(38, 50, 56); stroke-linecap: round; stroke-linejoin: round; stroke-width: 1.02127px; transform-origin: 258.438px 174.57px;" id="elpje4yxsovc9" class="animable"></path><path d="M254.89,159.72l-1.31-12.54H236.51l-1.14,7.29s3.25-.11,9.76,1.65" style="fill: none; stroke: rgb(38, 50, 56); stroke-linecap: round; stroke-linejoin: round; stroke-width: 1.02127px; transform-origin: 245.13px 153.45px;" id="elrf54hu4wtt" class="animable"></path><path d="M240.2,147.18s1.34-6.68-5.91-19.53-.08-43.16,6-65,11.19-37.59,16.3-38.56-4.3,55.53-4.84,80-2.46,30.62-1.45,43.05" style="fill: none; stroke: rgb(38, 50, 56); stroke-linecap: round; stroke-linejoin: round; stroke-width: 1.02127px; transform-origin: 244.672px 85.6288px;" id="elldaivdzn0nq" class="animable"></path><path d="M240.32,194s-3.46-7-8.8-5.28c-4.51,6.46-9.87,13.8-16.73,18.27-7.2,4.7-14.76,8.13-20.92,14.14a96.19,96.19,0,0,0-15,19.88c-7.24,12.17-13.23,25.15-22.88,35.79-.81.9-1.7,2.13-1.05,3.14s2.63.76,3.9.14c7.91-3.9,12.75-11.22,18.28-17.44,4.39-4.93,8.75-9.88,13.14-14.81,10.09-11.31,20.22-22.58,30.52-33.71,3.89-4.21,7.81-8.41,11.81-12.54C233.15,201,240.5,194.4,240.32,194Z" style="fill: none; stroke: rgb(38, 50, 56); stroke-linecap: round; stroke-linejoin: round; stroke-width: 1.02127px; transform-origin: 197.519px 234.535px;" id="elza0pk7efjbr" class="animable"></path><path d="M227.33,191.56s-1.93-3.17-2-4.65,3.26-6.2,3.26-6.2" style="fill: none; stroke: rgb(38, 50, 56); stroke-linecap: round; stroke-linejoin: round; stroke-width: 1.02127px; transform-origin: 226.959px 186.135px;" id="el3u35xtnnus" class="animable"></path><path d="M238.62,198.22s3.29,1.53,4.54,0,5.44-9.29,5.44-9.29-5.68-7.29-10-8.22" style="fill: none; stroke: rgb(38, 50, 56); stroke-linecap: round; stroke-linejoin: round; stroke-width: 1.02127px; transform-origin: 243.6px 189.805px;" id="eltqktc18hzrd" class="animable"></path><path d="M256.15,187.54c12.93,11.37,64.64,56,68,56,3.81,0-1.57-6.32-4.37-9.57s-29.45-24.83-36.81-36.89a37.75,37.75,0,0,0-17.77-14.81" style="fill: none; stroke: rgb(38, 50, 56); stroke-linecap: round; stroke-linejoin: round; stroke-width: 1.02127px; transform-origin: 290.809px 212.905px;" id="eldiexjcswf6p" class="animable"></path><path d="M226.39,189.87,212.12,189l-7.58-.46-17.88-1-7.51-.44-16.41-1s-2.8-15,3.5-19c4.26-2.68,17.16-6.42,27-8.64a72.31,72.31,0,0,1,10.81-1.84,60.28,60.28,0,0,1,6.67.29c3.17.28,6.57.69,9.3,1.05,1.27.15,3.43.19,4.3.32" style="fill: none; stroke: rgb(38, 50, 56); stroke-linecap: round; stroke-linejoin: round; stroke-width: 1.02127px; transform-origin: 194.255px 173.243px;" id="elezuhh9joy8d" class="animable"></path><line x1="206" y1="212.05" x2="206.98" y2="189.56" style="fill: none; stroke: rgb(38, 50, 56); stroke-linecap: round; stroke-linejoin: round; stroke-width: 1.02127px; transform-origin: 206.49px 200.805px;" id="el933veev09n" class="animable"></line><path d="M225.77,208.75c.79,67.5,4.49,241.74,4.49,241.74H195.94l8.5-218.11" style="fill: none; stroke: rgb(38, 50, 56); stroke-linecap: round; stroke-linejoin: round; stroke-width: 1.02127px; transform-origin: 213.1px 329.62px;" id="elgxea1bl5g3" class="animable"></path><path d="M210.75,157c-4.13,1.32-20.2,6.61-21.94,9.53-2.42,4.07-2.31,16-2.15,21l-7.51-.44c-.14-6.12-.07-17.74,2.4-21.85,2-2.4,6.9-4.8,11.72-6.72a72.31,72.31,0,0,1,10.81-1.84A60.28,60.28,0,0,1,210.75,157Z" style="fill: rgb(38, 50, 56); transform-origin: 194.929px 172.104px;" id="elphkt5sfluck" class="animable"></path><path d="M224.35,158.62S214.7,163,213,167.7c-1.47,3.9-1,17-.83,21.34l-7.58-.46c0-5.46.15-18.4.92-21.76,1-4.29,14.59-8.79,14.59-8.79l3.25.44Z" style="fill: rgb(38, 50, 56); transform-origin: 214.47px 173.535px;" id="el15nq1qlwxop" class="animable"></path><path d="M226.52,259.43a81.56,81.56,0,0,1-13.42,1.82v32.34a38.58,38.58,0,0,0,14-.8" style="fill: none; stroke: rgb(38, 50, 56); stroke-linecap: round; stroke-linejoin: round; stroke-width: 1.02127px; transform-origin: 220.1px 276.662px;" id="els80atizpi9l" class="animable"></path><path d="M226.19,196.2c-.95,1.05-2,2.13-2.91,3.08a32.38,32.38,0,0,1-16.57-10.57l19.42,1.62Z" style="fill: rgb(38, 50, 56); transform-origin: 216.45px 193.995px;" id="el622gqo994t" class="animable"></path></g><g id="freepik--Plants--inject-16" class="animable animator-hidden" style="transform-origin: 249.992px 426.477px;"><path d="M323.29,457.39c.68-5.28,1-15-4.27-20.3-7.55-7.55-18.87,4.71-21.7,4.71s-3.78-7.54-12.27-14.15-18.87,1.89-24.53,0,4.72-31.13-11.32-32.07-21.7,39.62-33,39.62-13.21-7.55-24.53-.94c-8.87,5.17-13.68,17.86-15.35,23.13Z" style="fill: rgb(236, 239, 241); transform-origin: 249.992px 426.477px;" id="el9y8ckesly2" class="animable"></path><g id="ely4ygbq2rnfn"><path d="M323.29,457.39c.68-5.28,1-15-4.27-20.3-7.55-7.55-18.87,4.71-21.7,4.71s-3.78-7.54-12.27-14.15-18.87,1.89-24.53,0,4.72-31.13-11.32-32.07-21.7,39.62-33,39.62-13.21-7.55-24.53-.94c-8.87,5.17-13.68,17.86-15.35,23.13Z" style="opacity: 0.2; transform-origin: 249.992px 426.477px;" class="animable"></path></g><line x1="207.07" y1="456.75" x2="197.48" y2="441.16" style="fill: none; stroke: rgb(38, 50, 56); stroke-linecap: round; stroke-linejoin: round; transform-origin: 202.275px 448.955px;" id="elqdg4g3dvdrb" class="animable"></line><line x1="243.89" y1="456.34" x2="248.95" y2="408.67" style="fill: none; stroke: rgb(38, 50, 56); stroke-linecap: round; stroke-linejoin: round; transform-origin: 246.42px 432.505px;" id="el5gesdwq1bru" class="animable"></line><line x1="273.12" y1="456.75" x2="278.06" y2="438.63" style="fill: none; stroke: rgb(38, 50, 56); stroke-linecap: round; stroke-linejoin: round; transform-origin: 275.59px 447.69px;" id="el8lbwvshd1r" class="animable"></line><line x1="309.03" y1="456.75" x2="313.92" y2="444.95" style="fill: none; stroke: rgb(38, 50, 56); stroke-linecap: round; stroke-linejoin: round; transform-origin: 311.475px 450.85px;" id="el07db6ym9bk1i" class="animable"></line><polyline points="208.45 441.58 203.39 450.44 191.58 445.8" style="fill: none; stroke: rgb(38, 50, 56); stroke-linecap: round; stroke-linejoin: round; transform-origin: 200.015px 446.01px;" id="elosimbs4du3" class="animable"></polyline><polyline points="241.36 412.47 247.26 423.02 255.28 413.31" style="fill: none; stroke: rgb(38, 50, 56); stroke-linecap: round; stroke-linejoin: round; transform-origin: 248.32px 417.745px;" id="el9dqfnza2h48" class="animable"></polyline><polyline points="237.98 429.35 245.58 438.63 253.17 432.72" style="fill: none; stroke: rgb(38, 50, 56); stroke-linecap: round; stroke-linejoin: round; transform-origin: 245.575px 433.99px;" id="elb4dylu67cta" class="animable"></polyline><line x1="275.95" y1="446.64" x2="286.07" y2="440.74" style="fill: none; stroke: rgb(38, 50, 56); stroke-linecap: round; stroke-linejoin: round; transform-origin: 281.01px 443.69px;" id="elueqc60nex" class="animable"></line><line x1="275.11" y1="450.02" x2="270.04" y2="436.94" style="fill: none; stroke: rgb(38, 50, 56); stroke-linecap: round; stroke-linejoin: round; transform-origin: 272.575px 443.48px;" id="eljmketxluqum" class="animable"></line><line x1="311.39" y1="451.28" x2="308.85" y2="442.84" style="fill: none; stroke: rgb(38, 50, 56); stroke-linecap: round; stroke-linejoin: round; transform-origin: 310.12px 447.06px;" id="el3404ruc4md3" class="animable"></line><line x1="310.54" y1="452.97" x2="317.71" y2="450.02" style="fill: none; stroke: rgb(38, 50, 56); stroke-linecap: round; stroke-linejoin: round; transform-origin: 314.125px 451.495px;" id="elsxbazbcf27s" class="animable"></line></g><g id="freepik--Clouds--inject-16" class="animable animator-hidden" style="transform-origin: 268.311px 176.353px;"><path d="M431.18,143.73h41.24s2-6.08-5.31-10.07-10.65-.67-13.31-4,7.32-12-12.64-20.63c0,0-1.34-18.7-28.63-19.31s-20,18.7-27.28,23.38-9.35-2.67-16.65,2-4,14-10,15.3-14-6-21.3-1.32-7.33,8.65-10.66,8.65-10-2.67-14,0-8.66,6-8.66,6H422.75" style="fill: none; stroke: rgb(38, 50, 56); stroke-miterlimit: 10; transform-origin: 388.325px 116.718px;" id="elsw0oucyb5kb" class="animable"></path><path d="M64.09,263h94.38s-2.59-1.87-4.86-3.36-6,0-7.86,0-1.89-2.24-6-4.85-8.58,1.46-11.93.75-1.51-6-5.59-8.58-5.22,1.5-9.33-1.12,0-13.43-15.29-13.09-16,10.82-16,10.82c-11.19,4.84-5.59,9.7-7.09,11.56s-3.36,0-7.45,2.23S64.09,263,64.09,263Z" style="fill: none; stroke: rgb(38, 50, 56); stroke-miterlimit: 10; transform-origin: 111.211px 247.871px;" id="elone0gj65d7n" class="animable"></path></g><g id="freepik--Wind--inject-16" class="animable animator-hidden" style="transform-origin: 400.82px 219.231px;"><path d="M377.84,197.07A88.45,88.45,0,0,1,402.22,200c11.17,2.94,21.88,7.81,33.32,9.37s24.44-1,31.46-10.14" style="fill: none; stroke: rgb(38, 50, 56); stroke-linecap: round; stroke-linejoin: round; transform-origin: 422.42px 203.425px;" id="elx19yhdz94tr" class="animable"></path><path d="M334.64,212.31c9.86-8.38,22.16-13.08,35-14.66" style="fill: none; stroke: rgb(38, 50, 56); stroke-linecap: round; stroke-linejoin: round; transform-origin: 352.14px 204.98px;" id="elelsmhoaeltr" class="animable"></path><path d="M447.41,224c7.69-1,14.95-4.16,19.59-10.22" style="fill: none; stroke: rgb(38, 50, 56); stroke-linecap: round; stroke-linejoin: round; transform-origin: 457.205px 218.89px;" id="elqijf46o0agb" class="animable"></path><path d="M334.64,226.86c18.14-15.42,44.56-18.39,67.58-12.32,11.17,2.94,21.88,7.81,33.32,9.37a46.26,46.26,0,0,0,6.47.43" style="fill: none; stroke: rgb(38, 50, 56); stroke-linecap: round; stroke-linejoin: round; transform-origin: 388.325px 219.231px;" id="ela2a72yltfol" class="animable"></path><path d="M420.47,234.83a90.88,90.88,0,0,0,15.07,3.63C447,240,460,237.49,467,228.32" style="fill: none; stroke: rgb(38, 50, 56); stroke-linecap: round; stroke-linejoin: round; transform-origin: 443.735px 233.601px;" id="eltwcwdpf1dl" class="animable"></path><path d="M386.5,226.42a89.2,89.2,0,0,1,15.72,2.67c5.13,1.35,10.16,3.11,15.2,4.76" style="fill: none; stroke: rgb(38, 50, 56); stroke-linecap: round; stroke-linejoin: round; transform-origin: 401.96px 230.135px;" id="elyxxjfs3ig5o" class="animable"></path><path d="M334.64,241.41c11.18-9.5,25.5-14.28,40.23-15.12" style="fill: none; stroke: rgb(38, 50, 56); stroke-linecap: round; stroke-linejoin: round; transform-origin: 354.755px 233.85px;" id="elxgss1gbyuba" class="animable"></path></g><defs>     <filter id="active" height="200%">         <feMorphology in="SourceAlpha" result="DILATED" operator="dilate" radius="2"></feMorphology>                <feFlood flood-color="#32DFEC" flood-opacity="1" result="PINK"></feFlood>        <feComposite in="PINK" in2="DILATED" operator="in" result="OUTLINE"></feComposite>        <feMerge>            <feMergeNode in="OUTLINE"></feMergeNode>            <feMergeNode in="SourceGraphic"></feMergeNode>        </feMerge>    </filter>    <filter id="hover" height="200%">        <feMorphology in="SourceAlpha" result="DILATED" operator="dilate" radius="2"></feMorphology>                <feFlood flood-color="#ff0000" flood-opacity="0.5" result="PINK"></feFlood>        <feComposite in="PINK" in2="DILATED" operator="in" result="OUTLINE"></feComposite>        <feMerge>            <feMergeNode in="OUTLINE"></feMergeNode>            <feMergeNode in="SourceGraphic"></feMergeNode>        </feMerge>            <feColorMatrix type="matrix" values="0   0   0   0   0                0   1   0   0   0                0   0   0   0   0                0   0   0   1   0 "></feColorMatrix>    </filter></defs></svg>
