<?xml version="1.0" encoding="utf-8"?>
<!DOCTYPE svg PUBLIC "-//W3C//DTD SVG 20010904//EN" "http://www.w3.org/TR/2001/REC-SVG-20010904/DTD/svg10.dtd">
<svg version="1.0" xmlns="http://www.w3.org/2000/svg" width="2129px" height="1185px" viewBox="0 0 2129 1185" preserveAspectRatio="xMidYMid meet">
 <g fill="#e6f5ff">
  <path d="M829.9 797.9 c-2.5 -0.4 -5.4 -1.2 -6.5 -1.8 -1 -0.6 -4.3 -2 -7.3 -3.1 -12.1 -4.6 -24.2 -15 -33.7 -29 -7.8 -11.5 -16.5 -34.1 -18.4 -47.8 -1.3 -9.6 -1.8 -11.2 -3.4 -11.2 -2.2 0 -9.1 2.2 -9.6 3.1 -0.3 0.5 -6.1 1.3 -12.9 1.9 -13.4 1.2 -34.1 -0.1 -39.6 -2.4 -1.6 -0.8 -6.3 -2.6 -10.4 -4.1 -9.2 -3.5 -20.8 -11.1 -26.1 -17.3 -8.8 -10.2 -15 -27.9 -15 -42.5 0 -7.4 0.5 -8.2 4.8 -9.2 1.7 -0.3 3.2 -1.1 3.2 -1.6 0 -0.5 0.7 -0.9 1.6 -0.9 0.8 0 2.2 -0.7 3 -1.5 0.9 -0.8 2.4 -1.5 3.5 -1.5 1.1 0 2.2 -0.7 2.5 -1.5 0.4 -0.8 1.4 -1.5 2.4 -1.5 1 0 3.2 -1.3 4.9 -2.9 1.7 -1.6 3.8 -3.1 4.6 -3.5 0.8 -0.3 1.5 -0.9 1.5 -1.5 0 -0.5 1 -1.1 2.2 -1.4 1.2 -0.4 2 -0.9 1.7 -1.2 -0.3 -0.3 -4.8 1.5 -10 3.9 -14.3 6.6 -37.9 13.6 -46.3 13.6 -1.4 0 -2.8 0.5 -3.2 1.1 -0.3 0.6 -2.7 1 -5.3 0.8 -2.5 -0.1 -5.9 0.1 -7.4 0.6 -3.1 0.8 -29.9 -1.1 -32.6 -2.4 -0.9 -0.5 -5.5 -1.8 -10.3 -2.9 -4.8 -1.1 -13.3 -3.9 -19 -6.1 -11.2 -4.4 -10.8 -3.4 1.6 4.1 15 9.1 35 15 55.8 16.5 l8.8 0.6 0 2.8 c0 3.2 -1.9 7.9 -3.2 7.9 -0.4 0 -0.8 0.7 -0.8 1.5 0 0.8 -0.4 1.5 -1 1.5 -0.5 0 -1 0.6 -1 1.4 0 0.8 -0.7 1.6 -1.5 2 -0.8 0.3 -1.5 1.1 -1.5 1.9 0 1.5 -6.7 8.2 -9.2 9 -1 0.4 -1.8 1.3 -1.8 2.2 0 0.8 -0.9 1.5 -1.9 1.5 -1.1 0 -2.1 0.3 -2.3 0.8 -1 2.3 -24.3 11.2 -29.5 11.2 -1.3 0 -2.3 0.4 -2.3 0.8 0 1.1 -25.9 0.6 -32.5 -0.6 -22.2 -4.1 -43.3 -19.5 -52.1 -38.2 -0.9 -1.9 -2 -4.2 -2.5 -5.2 -2.8 -5.7 -4.2 -15.1 -4.3 -29.1 l-0.1 -14.8 -4.5 0.7 c-2.5 0.4 -5 1 -5.5 1.5 -1.9 1.5 -27.6 0.5 -33.8 -1.4 -8.8 -2.6 -11.1 -4.1 -15.2 -10.2 -12.2 -18.4 -13.4 -40.7 -3 -57 3.7 -5.9 14.5 -16.1 15.4 -14.6 0.5 0.7 2.3 0.5 5.6 -0.5 2.8 -0.9 9.7 -1.8 15.5 -2.1 21.8 -1.2 39.5 5.4 54.8 20.2 4.8 4.7 8.8 8.1 9 7.6 0.2 -0.5 2.6 -4.2 5.4 -8.3 6.7 -9.5 22.3 -24.9 32.1 -31.6 10.6 -7.3 26.6 -14.7 38.4 -17.9 9.1 -2.5 11.4 -2.7 31.3 -2.7 17.4 -0.1 23.2 0.3 30.5 1.8 23.1 4.8 41.1 14.2 56.2 29.2 l8.1 8.1 4.8 -6.9 c8.8 -13 24.2 -24.5 40.2 -30.1 7.9 -2.8 10.1 -3.1 24.1 -3.5 16.5 -0.4 23 0.4 34.4 4.3 8 2.8 15.8 7.1 22.7 12.6 4.4 3.5 5.1 3.8 5.7 2.2 5.6 -16.3 15.3 -31.5 28.2 -44.4 15.6 -15.6 33.3 -26 53.6 -31.5 9.1 -2.5 11.6 -2.7 28.5 -2.8 14.4 -0.1 20.4 0.3 27 1.7 11 2.4 26.7 8.5 35.5 14 6.7 4.1 7 4.4 7.3 8.4 0.3 4.1 0.2 4.2 -5.5 7.9 -7.5 4.8 -12.5 8.7 -19.9 15.3 l-5.9 5.3 5.5 -2.7 c7.7 -3.9 27.6 -11.7 39.5 -15.5 22.3 -7.1 50.8 -12.7 76.7 -15.1 15.6 -1.4 67.2 -0.5 80.4 1.4 l9 1.3 -1.2 -3.6 c-0.8 -2.1 -1.3 -8.5 -1.3 -16 -0.1 -10.6 0.3 -13.5 2.3 -19.1 6.2 -17.5 19.8 -29.5 37.3 -32.9 10 -2 28.1 -0.8 38 2.4 17.6 5.7 31.8 18.6 40.8 37.1 6.3 12.9 8.1 19 9.7 34.2 l1.2 11.2 4.7 -4.4 c6.6 -6.2 17.4 -13 26.3 -16.5 11.8 -4.7 21 -6.2 35.5 -5.8 12.8 0.3 12.8 0.3 21.6 4.7 10.7 5.3 19.6 13.7 23.9 22.6 2.4 5 3 7.6 3.4 15.6 0.3 7.1 0.1 9.8 -0.8 10.4 -0.7 0.4 -4.8 1.4 -9 2.1 -11.6 2 -23.3 6 -34.3 11.6 -5.4 2.8 -9.6 5.2 -9.5 5.4 0.2 0.2 4.4 -0.8 9.3 -2.2 17.2 -4.7 31.2 -6.4 53.8 -6.4 22.4 0 33.7 1.2 51.6 5.6 5.7 1.4 11.1 2.8 12 3.1 3.7 1.1 -2.8 -3 -10.4 -6.6 -7.7 -3.7 -16.3 -6.8 -25.2 -9.1 -4.2 -1.1 -4.3 -1.1 -4.3 -5.4 0 -7.9 9.6 -19.8 21.5 -26.7 8.7 -5.1 16.4 -6.9 29 -6.9 10.9 0 11.4 0.1 18.6 3.7 9.3 4.6 21.6 16.6 28.4 27.6 7.4 12 10.7 22.8 11.3 36.3 l0.4 11.1 7.7 -2 c6.3 -1.7 11 -2 28.6 -2.1 19 -0.1 21.8 0.1 29.5 2.2 14.3 3.9 31.7 14 38 21.9 3.6 4.6 10.8 20.4 13.7 29.8 2.3 8 2.6 10.7 2.7 24.5 0.1 16.8 -1.4 27 -4.6 30.2 -1 1 -1.8 2.1 -1.8 2.4 0 1 -6.7 7.4 -7.7 7.4 -0.5 0 -2 1.1 -3.4 2.3 -2.6 2.5 -13 7 -18.9 8.2 -1.9 0.4 -4 1.1 -4.6 1.6 -1.2 1 -26.3 0.5 -32.9 -0.6 -4.4 -0.7 -4.5 -0.7 -16.2 -6.1 -8.1 -3.6 -8.4 -3.7 -10.3 -1.9 -1.1 1 -2 2.4 -2 3.2 0 0.7 -1.1 1.8 -2.4 2.3 -1.4 0.5 -3.5 2.3 -4.7 3.9 -1.3 1.7 -2.9 3.1 -3.6 3.1 -0.8 0 -1.6 0.7 -1.9 1.5 -0.4 0.8 -1.1 1.5 -1.8 1.5 -0.6 0 -1.8 0.9 -2.6 2 -0.8 1.1 -2.2 2 -3.1 2 -1 0 -2.4 0.6 -3.1 1.3 -3.6 3.5 -32.5 14.7 -37.9 14.7 -1 0 -1.9 0.5 -1.9 1 0 1 -1.6 1.1 -17 1.2 -12.9 0.1 -18.1 -0.3 -22.3 -1.6 -2.3 -0.8 -6.9 -2.2 -10.2 -3.1 -7.8 -2.2 -19.5 -8.3 -26.7 -14 -5.9 -4.6 -15.4 -15.4 -17.8 -20.2 -0.8 -1.5 -2.2 -3.9 -3.2 -5.2 -1.1 -1.4 -1.8 -4.1 -1.8 -6.7 l0 -4.4 5.3 0.1 c2.8 0 7.7 0.4 10.7 0.9 5.4 0.8 25.7 -1.1 30.5 -3 4 -1.5 12.1 -3.9 15.3 -4.5 1.7 -0.4 3.2 -1.1 3.2 -1.6 0 -0.5 1.2 -1.1 2.8 -1.5 3.5 -0.7 9.2 -3.6 9.2 -4.6 0 -0.5 0.8 -0.8 1.8 -0.8 2 0 12.2 -6.6 12.2 -7.9 0 -0.5 0.9 -1.1 2 -1.4 1.1 -0.3 2 -1 2 -1.7 0 -0.7 -0.9 -0.6 -2.7 0.4 -9.2 5 -31.4 12.2 -47.3 15.3 -14.4 2.7 -50.6 2.4 -57.5 -0.6 -1.1 -0.5 -6 -2.1 -11 -3.6 -4.9 -1.5 -12 -4 -15.7 -5.6 -3.8 -1.5 -6.8 -2.6 -6.8 -2.3 0 0.7 14.4 9.9 17.8 11.3 2.1 0.9 3.7 2.7 5.1 5.7 1.2 2.4 2.1 4.8 2.1 5.3 0 0.5 0.6 1.1 1.3 1.3 0.9 0.4 1.2 3.8 1.2 12.9 0 10.9 -0.3 13 -2.4 17.7 -1.3 2.8 -2.7 5.2 -3.2 5.2 -0.5 0 -0.9 0.6 -0.9 1.4 0 0.8 -0.7 1.6 -1.5 2 -0.8 0.3 -2 1.7 -2.5 3.1 -0.5 1.4 -1.5 2.5 -2.1 2.5 -0.6 0 -2.5 1.2 -4.3 2.7 -4.3 3.6 -16 9.1 -21.2 9.9 -2.4 0.3 -4.4 1 -4.4 1.4 0 1 -23 0.4 -29.5 -0.8 -14 -2.5 -33.1 -12.3 -48.6 -25 l-8.9 -7.3 0 4.8 c0 2.6 -0.7 7.6 -1.5 11.1 -1.6 6.9 -8.3 22.2 -9.6 22.2 -0.5 0 -0.9 0.7 -0.9 1.5 0 0.8 -0.4 1.5 -1 1.5 -0.5 0 -1 0.7 -1 1.5 0 0.8 -0.4 1.5 -1 1.5 -0.5 0 -1 0.6 -1 1.4 0 0.8 -0.7 1.6 -1.5 2 -0.8 0.3 -1.5 1.2 -1.5 1.9 0 0.8 -1.8 2.8 -4 4.6 -2.2 1.7 -4 3.9 -4 4.7 0 0.8 -0.8 1.7 -1.7 2.1 -2.6 0.9 -7.3 5.4 -7.3 7 0 0.7 -0.9 1.3 -2 1.3 -1.1 0 -2.5 0.9 -3.2 2 -0.7 1.1 -1.6 2 -2.1 2 -0.7 0 -14.6 8.9 -15.7 10 -3 3.2 -40.4 17 -46.1 17 -1 0 -1.9 0.5 -1.9 1 0 0.6 -3.2 1 -7.5 1 -4.1 0 -7.5 0.4 -7.5 0.9 0 2.1 -41.8 -0.6 -48 -3.1 -0.8 -0.3 -5.7 -2 -10.9 -3.6 -18.4 -6 -30.4 -16.2 -38.3 -32.4 -6.3 -12.9 -7.1 -16.3 -7.1 -31.3 0 -15.2 0.9 -22.3 3.3 -25.4 1.7 -2.3 9.2 -4 25.3 -5.8 3.2 -0.3 6 -1 6.3 -1.4 0.3 -0.5 1.8 -0.9 3.3 -0.9 1.6 0 4.2 -0.7 5.7 -1.5 1.6 -0.8 4.1 -1.5 5.6 -1.5 1.5 0 3 -0.4 3.3 -1 0.3 -0.5 1.7 -1 3 -1 1.3 0 2.6 -0.4 3 -0.9 0.3 -0.5 3 -1.5 6 -2.1 3 -0.6 5.5 -1.6 5.5 -2.1 0 -0.5 0.9 -0.9 2.1 -0.9 1.1 0 2.7 -0.7 3.5 -1.5 0.9 -0.8 2.6 -1.5 4 -1.5 1.3 0 2.4 -0.4 2.4 -1 0 -0.5 0.9 -1 1.9 -1 1.1 0 2.1 -0.4 2.3 -0.9 0.4 -1.1 12.3 -7.1 14 -7.1 0.7 0 2.6 -1.1 4.2 -2.5 1.6 -1.4 3.5 -2.5 4.3 -2.5 0.7 0 1.3 -0.4 1.3 -1 0 -0.5 0.9 -1 2 -1 1.1 0 2.3 -0.7 2.6 -1.5 0.4 -0.8 1.2 -1.5 2 -1.5 0.8 0 1.4 -0.4 1.4 -1 0 -0.5 0.7 -1 1.5 -1 0.8 0 1.5 -0.4 1.5 -1 0 -0.5 0.7 -1 1.5 -1 0.8 0 1.5 -0.4 1.5 -1 0 -0.5 0.7 -1 1.5 -1 0.9 0 1.8 -0.7 2.1 -1.5 0.4 -0.8 1.2 -1.5 2 -1.5 0.8 0 1.4 -0.4 1.4 -1 0 -0.5 0.7 -1 1.5 -1 0.8 0 1.9 -0.9 2.5 -2 0.6 -1.1 1.7 -2 2.5 -2 0.8 0 2 -0.9 2.7 -2 0.7 -1.1 1.8 -2 2.5 -2 0.7 0 2.2 -1.3 3.5 -3 1.2 -1.6 2.7 -3 3.2 -3 0.6 0 5.8 -4.8 11.6 -10.7 10.1 -10.2 10.3 -10.6 5.5 -7.9 -2.7 1.6 -5.5 3.5 -6.1 4.2 -0.6 0.8 -1.6 1.4 -2.3 1.4 -1.2 0 -18.2 8.9 -19.1 10 -0.8 0.9 -28.4 13.4 -39.5 17.8 -19.5 7.7 -55 18.2 -61.7 18.2 -1 0 -1.8 0.5 -1.8 1 0 0.6 -2.7 1 -6 1 -3.3 0 -6 0.4 -6 0.8 0 0.9 -18.5 3 -27 3.2 -8.2 0.2 -34.4 0.2 -41.3 0.1 -3.7 -0.1 -11.2 -0.9 -16.5 -1.7 -5.3 -0.8 -12.8 -2 -16.7 -2.6 -3.8 -0.5 -7.9 -1.4 -9 -1.8 -1.1 -0.4 -8.2 -2.4 -15.8 -4.4 -24.7 -6.4 -56.4 -19.8 -81.1 -34 -4.4 -2.5 -8 -4.6 -8.2 -4.6 -0.6 0 8.9 13.5 9.7 13.8 0.5 0.2 0.9 1 0.9 1.7 0 0.8 0.6 2 1.3 2.7 0.7 0.7 2.1 3.2 3.1 5.6 1.1 2.3 2.3 4.2 2.7 4.2 0.5 0 1.3 1.8 1.9 4 0.6 2.2 1.5 4 2 4 0.5 0 1.4 1.8 2 4 0.6 2.2 1.5 4 1.9 4 0.5 0 1.4 2.1 2 4.8 0.7 2.6 2.4 7.2 3.8 10.2 2.7 5.7 4.4 11 6.9 21.5 2.8 11.7 3.4 15.8 3.4 22.1 0 3.4 0.4 6.6 1 6.9 0.6 0.4 0.8 7.6 0.6 18.8 -0.3 13.8 -0.9 20.2 -2.5 26.8 -2.1 9.1 -6.8 20.9 -8.2 20.9 -0.5 0 -0.9 0.9 -0.9 1.9 0 1.1 -0.6 2.6 -1.3 3.3 -0.7 0.7 -1.6 2.1 -2 3.1 -0.3 0.9 -1.1 1.7 -1.7 1.7 -0.5 0 -1 0.5 -1 1.1 0 1.1 -7.1 8.1 -10.7 10.6 -4.9 3.4 -12.3 7.5 -16.3 9 -2.5 0.9 -4.7 2 -5 2.4 -1.6 2.3 -27.8 3.5 -38.1 1.8z"/>
 </g>
 <g fill="#b5d7ff">
  <path d="M863 862.3 c-30 -2 -61.2 -13.4 -84.9 -30.8 -17.5 -12.9 -30 -26.6 -36.1 -39.7 l-3.1 -6.6 -6.7 -0.7 c-27.2 -2.7 -54.2 -18.9 -69.9 -41.7 -4.1 -6 -10.3 -17.5 -10.3 -19.3 0 -0.2 -0.5 -1.6 -1 -3 l-1 -2.6 -3.8 4.3 c-13.6 15.9 -34.1 26.9 -55.7 29.9 -30.4 4.2 -62.9 -10.1 -81.8 -36.1 l-4.3 -5.9 -3 2.4 c-18.3 14.3 -48.6 15.3 -70 2.3 -10.8 -6.5 -19.4 -17 -23.5 -28.9 -3.1 -8.8 -3.7 -24.1 -1.4 -34.4 3.2 -14.6 12.6 -29.3 23.3 -36.7 l4.6 -3.2 -3.1 -0.8 c-5 -1.3 -15.3 -8.9 -20 -14.7 -5.3 -6.4 -5.5 -8.2 -0.5 -4.3 8.6 6.7 17.5 9.4 32.5 9.6 6 0 11.1 -0.1 11.3 -0.4 0.3 -0.2 4.1 -1.1 8.5 -2 6.5 -1.3 8.2 -1.4 9.1 -0.3 0.5 0.7 0.7 2.1 0.3 3 -2.4 5.8 -2.4 22.6 -0.1 32.1 0.3 1.2 0.8 3.2 1.1 4.5 0.5 2.3 1.1 3.8 3.9 9.7 7.5 15.9 22.4 28.4 41.3 35.1 3.2 1.1 7.2 2.3 8.8 2.5 1.7 0.3 4.1 0.7 5.5 1 3.8 0.9 23 1 23 0.2 0 -0.5 1 -0.8 2.3 -0.8 5.2 0 28.5 -8.9 29.5 -11.2 0.2 -0.5 1.2 -0.8 2.3 -0.8 1 0 1.8 -0.5 1.7 -1.2 -0.2 -0.6 0.7 -1.7 2 -2.4 3.3 -1.6 9.2 -7.5 8.6 -8.5 -0.2 -0.4 0.5 -1.4 1.6 -2.2 1.1 -0.7 1.7 -1.7 1.4 -2 -0.4 -0.4 0.1 -0.9 1 -1.3 0.9 -0.3 1.3 -1 1 -1.5 -0.3 -0.5 0.2 -1.2 1 -1.5 0.9 -0.3 1.3 -1 1 -1.5 -0.3 -0.5 0 -0.9 0.6 -0.9 0.6 0 0.9 -0.4 0.6 -0.9 -0.4 -0.5 0 -1.1 0.6 -1.3 0.7 -0.3 -3 -0.8 -8.2 -1.2 -24.8 -1.8 -42.2 -7.4 -60.5 -19.5 -8.2 -5.3 -22 -18.2 -24.2 -22.5 l-1.5 -2.9 3.8 2.3 c19.3 11.7 34.7 18.5 50.3 22.2 4.7 1.2 9.3 2.3 10.1 2.6 0.8 0.2 2.9 0.6 4.5 0.8 10.6 1.1 16.5 1.5 20 1.5 9.1 -0.3 14.5 -0.8 15.1 -1.4 0.4 -0.4 1.8 -0.7 3.1 -0.7 10.3 0 35.5 -8.2 54.1 -17.6 8.1 -4 15.3 -7.4 16 -7.4 0.7 0 1 -0.4 0.7 -1 -0.3 -0.5 0.6 -1.2 2 -1.6 1.4 -0.3 2.5 -1 2.5 -1.5 0 -0.5 1.2 -0.9 2.8 -0.9 l2.7 0.1 -3.5 2.9 c-1.9 1.6 -3.1 3 -2.5 3 1.4 0 -7.7 9 -9.2 9 -0.7 0 -2 1.1 -2.9 2.5 -0.9 1.4 -2.2 2.5 -2.9 2.5 -0.7 0 -1.5 0.7 -1.9 1.5 -0.3 0.8 -1 1.5 -1.5 1.5 -0.5 0 -2.3 1.4 -4.1 3 -1.8 1.7 -4 3 -5 3 -1 0 -2 0.7 -2.4 1.5 -0.3 0.8 -1.4 1.5 -2.5 1.5 -1.1 0 -2.6 0.7 -3.5 1.5 -0.8 0.8 -2.2 1.5 -3 1.5 -0.9 0 -1.6 0.4 -1.6 1 0 0.5 -1.6 1.2 -3.5 1.6 -5 0.9 -5.4 3 -2.9 16.4 0.7 3.9 1.2 6.5 1.4 6.5 0.1 0 0.3 0.8 0.5 1.8 0.7 3.9 7.6 16.4 11.5 20.9 5.2 6.1 16.9 13.8 25.6 17.1 9.4 3.5 10.8 4 11.7 4.2 0.4 0.2 0.8 0.3 1 0.5 0.1 0.1 1.6 0.3 3.2 0.5 1.7 0.1 5.9 0.6 9.5 1.1 3.6 0.4 8.1 0.7 10 0.7 10.2 -0.3 16 -0.9 16 -1.7 0 -0.4 1.4 -0.6 3 -0.4 1.7 0.3 3 0.1 3 -0.3 0 -0.8 11.3 -4 14.9 -4.2 1.7 -0.2 2.5 0.4 2.6 1.8 0.1 1.1 0.5 3.7 0.9 5.8 0.4 2 0.9 5.2 1.1 7 0.6 3.8 2.1 10.9 2.5 11.5 0.2 0.1 0.3 0.5 0.4 1 1.6 7.2 10.1 26 15 33.2 9.3 13.7 21.5 24.3 33.2 28.8 2.7 1 5.8 2.3 6.9 2.7 1.1 0.5 2.3 0.9 2.8 1 0.4 0.2 0.8 0.3 1 0.5 1.3 1 24.7 1.7 24.7 0.6 0 -0.4 1.6 -0.6 3.5 -0.4 1.9 0.2 3.5 0 3.5 -0.5 0 -0.5 0.9 -0.7 2 -0.4 1.1 0.3 2 0.2 2 -0.2 0 -0.3 2.1 -1.4 4.8 -2.3 4.1 -1.6 11.1 -5.4 16.5 -9.1 3.3 -2.2 10.2 -9.1 10 -9.9 -0.2 -0.4 0.6 -1.2 1.7 -1.8 1.1 -0.6 1.8 -1.5 1.5 -2.1 -0.4 -0.5 0.1 -1.2 0.9 -1.5 0.9 -0.3 1.3 -1 1 -1.5 -0.3 -0.5 0 -0.9 0.6 -0.9 0.6 0 0.9 -0.4 0.5 -0.9 -0.3 -0.5 0.1 -1.6 0.9 -2.4 0.8 -0.8 1.2 -1.7 0.9 -2.1 -0.4 -0.3 -0.1 -0.6 0.6 -0.6 0.7 0 0.9 -0.4 0.6 -1 -0.3 -0.5 -0.1 -1 0.5 -1 0.6 0 0.8 -0.4 0.5 -1 -0.3 -0.5 -0.2 -1 0.4 -1 0.6 0 0.8 -0.7 0.5 -1.5 -0.4 -0.8 -0.1 -1.5 0.6 -1.5 0.6 0 0.8 -0.4 0.5 -1 -0.3 -0.5 -0.1 -1 0.5 -1 0.7 0 1 -0.7 0.6 -1.5 -0.3 -0.8 -0.1 -1.5 0.5 -1.5 0.6 0 0.8 -0.9 0.4 -2 -0.4 -1.2 -0.2 -2 0.5 -2 0.6 0 0.8 -1 0.4 -2.5 -0.4 -1.6 -0.2 -2.5 0.6 -2.5 0.7 0 0.9 -0.8 0.5 -2 -0.4 -1.2 -0.2 -2 0.5 -2 0.8 0 0.9 -1.4 0.4 -4.5 -0.3 -2.5 -0.2 -4.5 0.3 -4.5 0.9 0 0.9 -22.6 0 -25 -0.4 -0.8 -0.8 -4.4 -1 -8 -0.1 -3.6 -0.6 -7.1 -1.1 -7.8 -0.4 -0.7 -0.4 -2.1 -0.1 -3.2 0.4 -1.1 0.2 -2 -0.4 -2 -0.5 0 -1 -0.8 -1 -1.7 -0.1 -2.9 -0.6 -5.8 -1.4 -7 -0.4 -0.6 -0.4 -1.8 -0.1 -2.7 0.3 -0.9 0.1 -1.6 -0.6 -1.6 -0.6 0 -0.9 -0.4 -0.5 -0.9 0.3 -0.5 0 -1.3 -0.6 -1.6 -0.5 -0.4 -0.8 -1.3 -0.5 -2.1 0.3 -0.8 0 -1.4 -0.5 -1.4 -0.6 0 -0.9 -0.9 -0.6 -2 0.3 -1.1 0.1 -2 -0.5 -2 -0.5 0 -0.7 -0.4 -0.3 -0.9 0.3 -0.5 0.1 -1.2 -0.5 -1.6 -0.6 -0.4 -0.8 -1 -0.5 -1.5 0.3 -0.5 0.1 -1.1 -0.4 -1.4 -1 -0.7 -4.6 -10.6 -4.3 -11.8 0.1 -0.5 -0.3 -0.8 -0.9 -0.8 -0.6 0 -0.9 -0.7 -0.5 -1.5 0.3 -0.8 0.1 -1.5 -0.4 -1.5 -0.9 0 -2.6 -3.9 -2.2 -5.2 0.1 -0.5 -0.3 -0.8 -0.9 -0.8 -0.5 0 -0.7 -0.4 -0.4 -1 0.3 -0.5 0.2 -1 -0.4 -1 -1 0 -2.7 -3.8 -2.3 -5.2 0.1 -0.5 -0.3 -0.8 -0.9 -0.8 -0.5 0 -0.7 -0.4 -0.4 -1 0.3 -0.5 0.2 -1 -0.3 -1 -0.7 0 -3.7 -5.2 -4.4 -7.8 -0.1 -0.4 -1 -1.6 -2 -2.6 -0.9 -1 -1.5 -2.3 -1.2 -2.8 0.3 -0.4 0.1 -0.8 -0.4 -0.8 -0.6 0 -2.2 -2.1 -3.7 -4.6 -1.5 -2.5 -6.7 -9.6 -11.7 -15.7 -4.9 -6.1 -8.5 -11.3 -8.1 -11.4 0.5 -0.2 7.4 3.7 15.4 8.7 29.1 18.3 64.7 34.1 93.6 41.6 7.6 2 14.5 3.9 15.3 4.2 0.8 0.3 1.8 0.5 2.2 0.4 0.3 -0.1 3.9 0.5 8 1.4 4 0.8 9.1 1.6 11.3 1.9 2.2 0.2 5.6 0.7 7.5 1 6.4 0.9 21.3 1.6 33 1.6 22.3 -0.2 28 -0.5 28 -1.4 0 -0.5 1.6 -0.7 3.5 -0.4 1.9 0.3 3.7 0.1 4.1 -0.5 0.3 -0.5 2.2 -0.8 4 -0.6 1.9 0.2 3.5 0.1 3.6 -0.4 0.2 -0.4 2.9 -0.9 6 -1 3.2 -0.2 5.8 -0.6 5.8 -1 0 -0.5 0.8 -0.8 1.8 -0.8 6.7 0 42.2 -10.5 61.7 -18.2 11.1 -4.4 38.7 -16.9 39.5 -17.8 1.1 -1.4 18.1 -10 19.7 -10 0.9 0 1.4 -0.3 1 -0.6 -0.8 -0.8 21.8 -14.4 24 -14.4 0.9 0 1.3 -0.3 1 -0.7 -0.4 -0.3 0.2 -1.3 1.4 -2.1 1.4 -1 2.4 -1.1 3.1 -0.4 0.7 0.7 0.3 1.4 -1.1 2.2 -1.2 0.6 -1.9 1.5 -1.6 2 0.3 0.5 -0.4 1.5 -1.5 2.3 -1.1 0.7 -1.7 1.6 -1.5 1.9 0.3 0.3 -0.9 1.8 -2.7 3.3 -1.8 1.5 -3.3 3.1 -3.3 3.6 0 1.1 -20.9 21.9 -22.1 21.9 -0.5 0 -2 1.4 -3.2 3 -1.3 1.7 -2.8 3 -3.5 3 -0.7 0 -1.8 0.9 -2.5 2 -0.7 1.1 -1.9 2 -2.7 2 -0.8 0 -1.9 0.9 -2.5 2 -0.6 1.1 -1.7 2 -2.5 2 -0.8 0 -1.5 0.5 -1.5 1 0 0.6 -0.6 1 -1.4 1 -0.8 0 -1.6 0.7 -2 1.5 -0.3 0.8 -1.2 1.5 -2.1 1.5 -0.8 0 -1.5 0.5 -1.5 1 0 0.6 -0.7 1 -1.5 1 -0.8 0 -1.5 0.5 -1.5 1 0 0.6 -0.7 1 -1.6 1 -0.8 0 -1.2 0.5 -0.9 1 0.3 0.6 -0.3 1 -1.3 1 -1.1 0 -2.2 0.7 -2.6 1.5 -0.3 0.8 -1.5 1.5 -2.6 1.5 -1.1 0 -2 0.5 -2 1 0 0.6 -0.6 1 -1.3 1 -0.8 0 -2.7 1.1 -4.3 2.5 -1.6 1.4 -3.5 2.5 -4.2 2.5 -1.7 0 -13.6 6 -14 7.1 -0.2 0.5 -1.2 0.9 -2.3 0.9 -1 0 -1.9 0.5 -1.9 1 0 0.6 -1.1 1 -2.4 1 -1.4 0 -3.1 0.7 -4 1.5 -0.8 0.8 -2.4 1.5 -3.5 1.5 -1.2 0 -2.1 0.4 -2.1 0.9 0 0.5 -2.5 1.5 -5.5 2.1 -3 0.6 -5.7 1.6 -6 2.1 -0.4 0.5 -1.7 0.9 -3 0.9 -1.3 0 -2.7 0.5 -3 1 -0.3 0.6 -1.8 1 -3.3 1 -1.5 0 -4 0.7 -5.6 1.5 -1.5 0.8 -4 1.5 -5.5 1.5 -1.5 0 -3.1 0.4 -3.7 0.9 -0.5 0.5 -3.8 1.2 -7.3 1.5 -3.5 0.4 -6.8 0.9 -7.4 1.3 -1 0.6 -3.1 0.9 -10 1.1 -2.7 0.2 -4.5 1 -6.2 2.8 -1.4 1.5 -2.3 3 -2 3.4 0.2 0.4 0 2.2 -0.6 4.1 -1.8 6.2 -1.2 29 0.9 32.4 0.4 0.5 0.7 1.5 0.8 2 0.1 0.6 2.1 5 4.5 9.9 7.5 15.6 19.9 25.8 38 31.8 5.2 1.6 10.1 3.2 10.9 3.5 0.8 0.3 2.6 0.7 4 0.9 1.4 0.1 5.7 0.8 9.5 1.4 8.3 1.3 27.8 1.9 28.5 0.8 0.3 -0.4 3.8 -0.8 7.8 -1 3.9 -0.2 7.2 -0.6 7.2 -1 0 -0.5 0.9 -0.8 1.9 -0.8 5.7 0 43.1 -13.8 46.1 -17 1.1 -1.1 15 -10 15.7 -10 0.5 0 1.4 -0.9 2.1 -2 0.7 -1.1 2.1 -2 3.3 -2 1.1 0 1.8 -0.4 1.5 -0.8 -0.6 -1 5.1 -6.6 7.7 -7.5 1 -0.4 1.6 -1.1 1.2 -1.6 -0.3 -0.5 1.5 -2.7 3.9 -4.7 2.5 -2.1 4.3 -4.1 4 -4.5 -0.2 -0.4 0.5 -1.4 1.6 -2.2 1.1 -0.7 1.7 -1.7 1.4 -2 -0.4 -0.4 0.1 -0.9 1 -1.3 0.9 -0.3 1.3 -1 1 -1.5 -0.3 -0.5 0.2 -1.2 1 -1.5 0.9 -0.3 1.3 -1 1 -1.5 -0.3 -0.5 0.2 -1.2 1 -1.5 0.9 -0.3 1.3 -1 1 -1.5 -0.3 -0.5 0 -0.9 0.6 -0.9 0.6 0 0.8 -0.4 0.5 -1 -0.3 -0.5 -0.1 -1 0.5 -1 0.6 0 0.8 -0.4 0.5 -1 -0.3 -0.5 -0.1 -1 0.5 -1 0.6 0 0.8 -0.4 0.5 -1 -0.3 -0.5 -0.1 -1 0.5 -1 0.6 0 0.8 -0.4 0.5 -1 -0.3 -0.5 -0.1 -1 0.5 -1 0.7 0 1 -0.7 0.6 -1.5 -0.3 -0.8 -0.1 -1.5 0.5 -1.5 0.6 0 0.7 -0.4 0.4 -1 -0.3 -0.5 -0.1 -1 0.5 -1 0.7 0 1 -0.7 0.6 -1.5 -0.3 -0.8 -0.1 -1.5 0.5 -1.5 0.6 0 0.8 -0.9 0.4 -2 -0.4 -1.2 -0.2 -2 0.5 -2 0.6 0 0.8 -1 0.4 -2.5 -0.3 -1.4 -0.2 -2.5 0.4 -2.5 0.5 0 0.9 -1.5 0.9 -3.2 -0.1 -1.8 0 -5.7 0.1 -8.6 l0.2 -5.4 6.9 6.4 c9.3 8.6 16.2 13.8 26 19.7 8 4.9 22.8 10.9 28.6 11.7 1.7 0.3 4.1 0.7 5.5 1 3.5 0.8 20 1 20 0.3 0 -0.4 2 -1 4.4 -1.3 5.1 -0.8 16.8 -6.2 21.1 -9.8 1.7 -1.3 3.8 -2.8 4.8 -3.1 1 -0.4 1.6 -1.1 1.3 -1.6 -0.4 -0.5 0.5 -1.8 1.9 -2.9 1.3 -1.1 2.2 -2.2 1.8 -2.5 -0.3 -0.4 0.2 -0.9 1.1 -1.3 0.9 -0.3 1.3 -1 1 -1.5 -0.3 -0.5 0 -0.9 0.6 -0.9 0.6 0 0.8 -0.4 0.5 -1 -0.3 -0.5 -0.1 -1 0.5 -1 0.6 0 0.8 -0.4 0.5 -1 -0.3 -0.5 -0.1 -1 0.5 -1 0.7 0 1 -0.7 0.6 -1.5 -0.3 -0.8 -0.1 -1.5 0.5 -1.5 0.5 0 0.7 -1.1 0.3 -2.5 -0.4 -1.5 -0.2 -2.5 0.5 -2.5 1.3 0 1.2 -9 -0.1 -10.7 -0.6 -0.7 -0.8 -2.2 -0.5 -3.3 0.3 -1.1 0.1 -2 -0.4 -2 -0.5 0 -0.9 -0.5 -0.9 -1 0 -0.6 -0.9 -3 -2.1 -5.4 -1.4 -3 -3 -4.8 -5.2 -5.7 -10.1 -4.2 -36.7 -26.4 -36.7 -30.6 0 -1.3 0.4 -1.3 2.6 0.2 12.9 8.4 29.3 16.2 43.4 20.5 5.8 1.8 11.2 3.4 12 3.7 0.8 0.3 2.6 0.7 4 0.8 1.4 0.2 4.5 0.6 7 0.9 8.4 1.3 32.3 0.8 41 -0.8 11.8 -2.2 23.9 -5.6 34.6 -9.9 5 -2.1 9.4 -3.7 9.7 -3.7 0.8 0 27 -15 28.1 -16.1 0.6 -0.5 1.6 -0.9 2.4 -0.9 1.2 0 1.2 0.3 0.2 1.5 -0.7 0.8 -0.9 1.5 -0.5 1.5 0.4 0 -3 3.8 -7.7 8.5 -4.7 4.7 -9 8.5 -9.6 8.5 -0.5 0 -1.2 0.7 -1.6 1.5 -0.3 0.8 -1.2 1.5 -2.1 1.5 -0.8 0 -1.5 0.4 -1.5 1 0 1.4 -10.2 8 -12.4 8 -1.1 0 -1.7 0.3 -1.3 0.6 0.8 0.8 -6.1 4.4 -8.4 4.4 -1 0 -2.4 0.7 -3.2 1.5 -0.8 0.7 -2.8 1.7 -4.3 2 -3.3 0.7 -11.9 3.4 -14.9 4.6 -1.1 0.4 -4 1 -6.5 1.3 -2.5 0.4 -6.7 1 -9.5 1.3 -6.6 1 -15.4 1 -23.7 0.1 -7.5 -0.8 -8.3 -0.1 -5 4.3 1 1.3 2.4 3.7 3.2 5.2 2.4 4.8 11.9 15.6 17.8 20.2 9.8 7.8 26.7 15.3 37.7 17 1.1 0.1 2 0.3 2 0.4 0 0.4 14.1 1.3 17.5 1.1 1.9 -0.1 5.6 -0.3 8.3 -0.3 2.6 -0.1 4.7 -0.5 4.7 -0.9 0 -0.5 0.9 -0.8 1.9 -0.8 5.4 0 34.3 -11.2 37.9 -14.7 0.7 -0.7 2.2 -1.3 3.3 -1.3 1.1 0 1.7 -0.4 1.4 -1 -0.3 -0.5 0.1 -1 0.9 -1 0.9 0 1.6 -0.4 1.6 -1 0 -0.5 0.6 -1 1.4 -1 0.8 0 1.6 -0.7 2 -1.5 0.3 -0.8 1.1 -1.5 1.9 -1.5 0.7 0 2.3 -1.4 3.6 -3.1 1.2 -1.6 3.4 -3.4 4.7 -3.9 1.4 -0.6 2.3 -1.4 2 -1.9 -0.4 -0.5 0.9 -2.2 2.6 -3.7 1.8 -1.5 3.2 -3.1 3 -3.6 -0.4 -1.6 3.5 -0.8 5.2 1.1 0.9 1 4.7 3.2 8.4 4.8 8.9 4 10.2 4.5 13.7 4.9 1.7 0.2 4.1 0.8 5.5 1.2 2.7 0.9 22.1 0.9 23.6 0 0.5 -0.3 2.5 -0.9 4.4 -1.3 5.9 -1.2 16.3 -5.7 18.9 -8.2 1.4 -1.2 3 -2.3 3.4 -2.3 1.2 0 7.2 -6.2 7 -7.2 -0.2 -0.4 0.6 -1.2 1.7 -1.8 1.1 -0.6 1.8 -1.5 1.5 -2.1 -0.4 -0.5 -0.1 -0.9 0.5 -0.9 0.6 0 0.8 -0.5 0.5 -1 -0.3 -0.6 0 -1.3 0.9 -1.6 0.8 -0.3 1.2 -1.2 0.9 -2 -0.3 -0.8 0.1 -1.4 1.1 -1.4 0.9 0 1.6 -0.5 1.6 -1.2 0 -0.6 0.3 -0.9 0.6 -0.5 1.1 1.1 -3.8 16.3 -8.2 25.2 -14.7 29.9 -43.3 51.9 -78.4 60.2 -10.6 2.5 -33.7 2.3 -43.7 -0.4 -4 -1.1 -7.5 -1.7 -7.8 -1.5 -0.3 0.3 -0.5 2 -0.5 3.9 0 9 -8.7 25.2 -18 33.6 -10 9 -24.1 16.8 -38.9 21.7 -11.7 3.8 -28.7 6.4 -37.7 5.7 -13.8 -1 -39.2 -11.3 -48.7 -19.8 l-4.4 -3.8 -8.6 8.4 c-10.1 9.8 -19.5 15.1 -29.7 16.5 -13.5 1.9 -27.4 -2.7 -37.3 -12.4 l-5.5 -5.5 -4.8 8.2 c-9.7 16.9 -30.4 33.9 -50.7 41.8 -17.5 6.7 -41.8 10.3 -53.9 7.9 -9.5 -1.8 -22.6 -6.6 -29 -10.5 l-5.7 -3.5 -6.8 4.4 c-14.3 9.2 -29.7 15.5 -46.8 19.2 -12.1 2.6 -37 2.4 -49.5 -0.3 -24.9 -5.5 -45.9 -16.8 -64.5 -34.6 -3.8 -3.7 -7.1 -6.4 -7.3 -6 -0.1 0.5 -2.3 4 -4.8 7.8 -15.9 24.2 -38.5 43.9 -65.9 57.4 -27.7 13.7 -55.1 19.4 -83.5 17.4z"/>
 </g>
 <g fill="#ffffff">
  <path d="M1687 554.4 c-10.9 -11.2 -24.9 -19.5 -40 -23.6 -7.5 -2 -10.6 -2.3 -26.5 -2.2 -16.2 0.1 -19 0.3 -28 2.7 -5.5 1.5 -10.2 2.7 -10.6 2.7 -0.4 0 -0.9 -5.3 -1.1 -11.7 -0.4 -9.8 -1 -13.3 -3.5 -20.5 -6.4 -18.3 -21.6 -36.8 -36.2 -44.1 -6.7 -3.4 -8.1 -3.7 -15.6 -3.7 -14.2 0 -26.8 5.3 -37 15.5 -5.6 5.6 -11.6 14.7 -10.4 15.9 0.3 0.3 4.5 1.7 9.4 3.1 10.9 3.2 20.9 7.4 28.9 12.2 10 6 23.6 17.3 20.9 17.3 -0.6 0 -5.5 -1.8 -10.9 -3.9 -25.5 -10.1 -47.1 -14.1 -75.1 -14.1 -28.4 0 -52.1 4.9 -77.7 15.9 -2.7 1.2 -5.3 2 -5.9 1.8 -1.2 -0.4 8.2 -8.9 15.3 -13.7 12.9 -8.7 30.1 -15.6 46 -18.4 4.2 -0.7 8.3 -1.7 9 -2.1 0.9 -0.6 1.1 -2.7 0.7 -7.6 -1.2 -14.2 -11.2 -27.1 -27.2 -35 -8.1 -4.1 -9.4 -4.4 -18.4 -4.7 -22.7 -0.9 -44.1 7.9 -62.3 25.6 l-7.8 7.5 0 -5.9 c0 -16.8 -3.3 -31.1 -10.5 -45.9 -11.9 -24.3 -32.5 -38.7 -57.7 -40.2 -25.3 -1.6 -44.5 10.9 -52.6 34 -2.1 6.3 -2.4 8.3 -2 17.6 0.4 8.5 1 11.6 2.8 15.6 1.3 2.8 2.6 5.4 2.8 5.9 0.3 0.5 -1.4 0.6 -3.9 0.2 -17.1 -2.9 -27.4 -3.8 -50.1 -4.3 -16.3 -0.3 -30.5 -0.1 -38.5 0.6 -45.6 4.2 -87.2 15.8 -124.3 34.6 -7.2 3.7 -13.3 6.5 -13.6 6.2 -0.8 -0.8 7.7 -10.9 14.8 -17.7 3.8 -3.5 10.5 -9 15.1 -12.2 13.6 -9.5 12.7 -8.4 9.2 -11.3 -4.1 -3.4 -19.3 -10.9 -28.5 -13.9 -26.3 -8.7 -55.7 -7 -80.6 4.8 -13.3 6.3 -23.6 13.7 -34.5 24.5 -13.4 13.4 -22.8 28.3 -28.3 44.9 -1 2.8 -2.1 5.2 -2.5 5.2 -0.4 0 -2.3 -1.6 -4.2 -3.6 -4.8 -5 -16 -12.2 -23.9 -15.5 -11.7 -4.7 -20.6 -6.2 -34.8 -5.7 -10.9 0.4 -13.9 0.9 -21.4 3.5 -17.1 6 -32.4 17.9 -41.8 32.6 -3 4.8 -5.8 8.5 -6.2 8.4 -0.4 -0.1 -2.9 -2.9 -5.5 -6.2 -20.1 -24.9 -55.3 -38.8 -94.3 -37.2 -22.5 0.9 -42.5 7.7 -61.7 20.9 -11.3 7.7 -26.7 23.5 -34.3 35.1 -3.5 5.3 -6.6 9.7 -6.9 9.7 -0.3 0 -1.7 -1.6 -3 -3.6 -5.1 -7.5 -17.1 -17.3 -26.5 -21.9 -22.5 -10.8 -44.9 -9.6 -64.3 3.5 -2.5 1.7 -4.8 2.8 -5.1 2.5 -1.3 -1.3 13.6 -14.1 19.8 -17.1 12.2 -5.8 16.6 -6.9 28.5 -6.8 17.2 0 33.5 5.7 43.3 14.8 l5 4.7 4.6 -9.3 c17.6 -34.9 43.2 -58.2 72.9 -66.4 12.7 -3.5 33.2 -4.4 47.8 -2 12.4 2.1 28.2 7.3 39.9 13.1 8.8 4.4 23.8 14.1 29.9 19.2 l3.3 2.8 7.7 -7.5 c15.4 -15.2 33.2 -22.2 56.6 -22.2 21.4 0 39 6.4 53.2 19.5 2.5 2.3 4.8 3.7 5 3.1 1.1 -3.1 12.1 -20.6 19.5 -31 10.2 -14.4 19 -23.9 33.3 -36.2 34 -29.2 77.8 -49.5 123 -57.2 37.4 -6.3 64.8 -4.4 113.5 7.6 l22.5 5.6 9 -8.8 c18.3 -18 46.3 -33.4 70.2 -38.5 7.5 -1.7 13.1 -2.2 24.3 -2.1 16.2 0 26.8 2.1 41.2 8.1 28.8 12 51.8 40.3 62 76.1 1.8 6.3 3.3 11.6 3.3 11.7 0.1 0.2 2.8 -2.3 6.1 -5.5 11.8 -11.4 27.7 -17.3 46.9 -17.3 20.5 0.1 30.7 5 49.1 23.8 4.5 4.6 8.4 8.3 8.8 8.3 0.4 0 2.8 -1.4 5.2 -3.1 18.1 -12.4 45.6 -18.2 68.5 -14.5 33.2 5.5 56.4 27 61 56.7 1.1 7.1 0.7 25.1 -0.7 31 l-0.6 2.6 12.4 0.6 c29.4 1.3 57.3 15.8 77.6 40.3 5.3 6.4 13.2 18.2 13.2 19.8 0 1.5 -1.9 0.3 -6 -4z"/>
 </g>
</svg>